<svg width="258" height="191" viewBox="0 0 258 191" fill="none" xmlns="http://www.w3.org/2000/svg">
<path d="M231.196 104.649C231.196 132.923 219.978 158.585 201.751 177.417H51.343C33.1154 158.585 21.8981 132.923 21.8981 104.649C21.8981 46.8541 68.7522 0 126.547 0C184.342 0 231.196 46.8541 231.196 104.649Z" fill="#0BCBFF"/>
<path d="M240.618 184.225C235.716 184.977 230.815 185.157 225.913 185.249C221.011 185.353 216.109 185.298 211.208 185.241L203.855 185.196L196.503 185.193H181.798H122.977H64.1571H34.747L27.3945 185.196L23.7182 185.23L20.0419 185.291C17.5911 185.322 15.1402 185.273 12.6894 185.152C11.464 185.082 10.2386 184.986 9.01308 184.834C7.78768 184.685 6.56228 184.509 5.33679 184.225C5.06967 184.163 4.90328 183.897 4.9652 183.63C5.00941 183.439 5.15839 183.3 5.33679 183.258C6.5622 182.974 7.7876 182.798 9.01308 182.649C10.2385 182.497 11.4639 182.401 12.6894 182.332C15.1402 182.21 17.5911 182.162 20.0419 182.193L23.7182 182.253L27.3945 182.288L34.747 182.291H64.1571H122.977H181.798H196.503L203.855 182.288L211.208 182.242C216.109 182.186 221.011 182.131 225.913 182.235C230.815 182.327 235.716 182.507 240.618 183.258C240.885 183.299 241.068 183.549 241.028 183.816C240.994 184.032 240.823 184.194 240.618 184.225Z" fill="#000072"/>
<g opacity="0.3">
<path d="M123.977 191C183.483 191 231.722 188.6 231.722 185.639C231.722 182.678 183.483 180.278 123.977 180.278C64.471 180.278 16.2321 182.678 16.2321 185.639C16.2321 188.6 64.471 191 123.977 191Z" fill="#000072"/>
</g>
<path d="M255.749 104.817C254.87 110.921 252.931 117.606 249.721 124.302C247.944 128.011 245.782 131.721 243.192 135.338C239.921 139.921 235.967 144.356 231.263 148.447C230.309 149.277 229.326 150.09 228.311 150.89C224.723 153.717 219.436 152.506 217.382 148.422C216.752 147.17 216.513 145.801 216.643 144.471C216.793 142.904 217.449 141.393 218.581 140.19C220.967 137.661 224.178 133.611 227.168 127.759C229.074 124.031 230.889 119.575 232.342 114.31C233.745 109.243 234.814 103.432 235.299 96.8039C235.467 94.6031 235.565 92.3115 235.59 89.9257C235.59 89.9257 235.447 77.5323 247.259 78.7786C254.088 79.498 257.804 90.5738 255.749 104.817Z" fill="#726789"/>
<path d="M255.749 104.817C254.87 110.921 252.931 117.606 249.721 124.302C246.485 119.104 242.01 115.982 236.099 114.783C234.777 114.513 233.508 114.373 232.342 114.31C233.745 109.243 234.814 103.432 235.299 96.8038C236.392 96.9113 237.531 97.0652 238.697 97.2748C245.173 98.4398 250.908 100.992 255.749 104.817Z" fill="#504563"/>
<path d="M243.192 135.338C239.921 139.921 235.967 144.356 231.263 148.447C227.009 145.002 220.797 144.414 216.643 144.471C216.793 142.904 217.449 141.393 218.581 140.19C220.967 137.661 224.178 133.611 227.168 127.759C233.507 129.051 238.929 131.636 243.192 135.338Z" fill="#504563"/>
<g opacity="0.3">
<path d="M247.259 78.7785C246.214 78.6682 245.266 78.6694 244.399 78.7548C248.683 82.4968 250.673 91.7786 249.047 103.049C248.168 109.154 246.23 115.839 243.019 122.535C241.243 126.244 239.081 129.953 236.491 133.571C233.22 138.154 229.265 142.589 224.561 146.679C223.607 147.51 222.624 148.323 221.609 149.123C220.775 149.78 219.849 150.216 218.893 150.452C221.409 152.821 225.414 153.173 228.311 150.89C229.326 150.09 230.309 149.277 231.263 148.447C235.967 144.356 239.921 139.922 243.192 135.338C245.782 131.721 247.945 128.011 249.721 124.302C252.931 117.606 254.87 110.921 255.749 104.817C257.804 90.5738 254.088 79.498 247.259 78.7785Z" fill="#000072"/>
</g>
<g opacity="0.6">
<path d="M221.214 148.11C220.584 146.857 220.345 145.488 220.475 144.158C220.625 142.592 221.281 141.08 222.413 139.877C224.799 137.348 228.01 133.299 231 127.446C232.906 123.719 234.721 119.262 236.174 113.998C237.577 108.93 238.646 103.119 239.131 96.4911C239.299 94.2903 239.397 91.9988 239.422 89.6129C239.422 89.6129 239.324 80.6239 246.597 78.7305C235.461 78.0154 235.591 89.9256 235.591 89.9256C235.565 92.3115 235.467 94.603 235.299 96.8038C234.814 103.432 233.746 109.243 232.342 114.31C230.89 119.575 229.074 124.031 227.168 127.759C224.178 133.611 220.967 137.661 218.581 140.19C217.449 141.393 216.793 142.904 216.644 144.471C216.513 145.801 216.752 147.17 217.383 148.422C219.087 151.811 223.017 153.219 226.356 151.985C224.23 151.581 222.284 150.236 221.214 148.11Z" fill="white"/>
</g>
<path d="M223.883 153.552C223.276 153.552 222.665 153.486 222.059 153.35C219.587 152.801 217.516 151.189 216.379 148.928C216.379 148.928 216.379 148.928 216.379 148.928C214.802 145.794 215.359 141.974 217.764 139.422C223.869 132.944 234.156 117.899 234.468 89.9128C234.465 89.6866 234.442 83.7302 238.376 80.1477C240.618 78.1055 243.649 77.2707 247.377 77.6626C251.385 78.085 254.508 81.4872 256.169 87.2428C260.383 101.836 254.74 131.506 229.005 151.774C227.527 152.938 225.727 153.552 223.883 153.552ZM218.384 147.919C219.217 149.576 220.734 150.757 222.546 151.159C224.336 151.559 226.184 151.139 227.617 150.011C241.653 138.956 248.399 125.899 251.586 116.893C255.313 106.362 256.22 95.5106 254.013 87.8653C252.622 83.0457 250.182 80.2149 247.142 79.8944C244.081 79.572 241.644 80.2126 239.896 81.7984C236.707 84.6925 236.712 89.8623 236.712 89.914C236.392 118.687 225.726 134.245 219.397 140.961C217.637 142.829 217.23 145.625 218.384 147.919L218.384 147.919Z" fill="#000072"/>
<path d="M230.318 167.287C229.907 179.651 220.931 183.36 220.931 183.36C220.931 183.36 195.891 183.36 169.926 183.36H151.5C120.489 183.36 120.699 174.887 120.699 174.887H98.9247C91.7562 170.142 90.3723 163.396 91.345 156.944C91.5229 155.769 91.7759 154.607 92.0843 153.468C93.2666 149.138 95.2712 145.145 96.9754 142.255C97.1138 142.017 97.268 141.788 97.438 141.571C98.9207 139.594 101.341 138.526 103.796 138.74C104.164 138.771 104.535 138.835 104.903 138.925C151.702 150.558 175.73 129.29 185.089 117.392C185.089 117.392 185.089 117.388 185.093 117.384C185.429 116.957 185.745 116.542 186.046 116.139C187.92 113.616 191.676 113.434 193.697 115.842C193.827 116.001 193.961 116.155 194.092 116.305C194.203 116.432 194.313 116.554 194.424 116.677C195.737 118.136 197.121 119.409 198.552 120.571C201.355 122.849 204.352 124.723 207.393 126.807C208.824 127.787 210.264 128.811 211.699 129.95C214.728 132.346 217.729 135.232 220.56 139.206C221.429 140.428 222.284 141.753 223.114 143.196C224.328 145.299 225.498 147.652 226.609 150.317C226.835 150.854 227.048 151.388 227.25 151.91C228.317 154.67 229.068 157.205 229.559 159.525C229.828 160.779 230.017 161.973 230.144 163.104C230.31 164.598 230.361 165.99 230.318 167.287Z" fill="#726789"/>
<path d="M230.318 167.287C229.907 179.651 220.931 183.36 220.931 183.36C220.931 183.36 195.891 183.36 169.926 183.36H151.5C120.489 183.36 120.699 174.887 120.699 174.887H98.9247C91.7562 170.142 90.3723 163.396 91.345 156.944C91.345 156.944 105.342 175.159 118.924 161.835C118.924 161.835 113.142 156.997 107.269 155.022C106.732 154.842 106.767 154.074 107.314 153.928C108.686 153.563 110.039 152.909 109.814 151.764C109.403 149.672 101.317 148.751 97.438 141.571C98.9207 139.594 101.341 138.526 103.796 138.74C115.247 141.816 136.127 151.764 136.127 151.764C136.127 151.764 119.289 161.492 131.489 165.002C138.693 167.074 144.382 166.268 146.861 165.477C147.76 165.189 148.718 165.153 149.64 165.354C155.302 166.589 175.477 170.102 184.14 159.759C184.14 159.759 210.327 177.785 229.559 159.525C229.828 160.779 230.017 161.973 230.144 163.104C230.31 164.598 230.361 165.99 230.318 167.287Z" fill="white"/>
<path d="M117.612 161.036C117.612 161.036 112.787 160.184 108.226 161.48C107.918 161.568 107.726 161.164 107.989 160.981C109.401 160.002 111.962 158.69 115.314 158.932L117.612 161.036Z" fill="#504563"/>
<path d="M111.797 157.257C111.797 157.257 107.487 156.496 103.482 157.694C103.258 157.762 103.109 157.458 103.299 157.321C104.485 156.464 106.772 155.214 109.806 155.433L111.797 157.257Z" fill="#504563"/>
<path d="M126.983 156.783C126.983 156.783 133.515 157.415 137.923 161.094C138.108 161.248 138.371 161.042 138.257 160.83C137.364 159.177 135.124 155.899 130.769 154.26L126.983 156.783Z" fill="#504563"/>
<path d="M198.552 120.571C198.366 120.84 198.18 121.105 197.987 121.37C196.623 123.248 195.144 125.039 193.459 126.641C191.807 128.266 189.964 129.709 187.952 130.899C187.845 130.962 187.706 130.931 187.643 130.824C187.608 130.761 187.604 130.689 187.627 130.63L187.631 130.618C187.841 130.065 188.074 129.539 188.307 129.017C188.545 128.499 188.794 128.001 189.011 127.475L190.407 124.454C191.344 122.465 192.234 120.496 193.111 118.547C193.448 117.8 193.776 117.052 194.092 116.305C195.504 117.922 196.998 119.31 198.552 120.571Z" fill="#504563"/>
<path d="M211.699 129.95C210.631 131.318 209.489 132.619 208.231 133.813C206.579 135.434 204.736 136.881 202.723 138.071C202.617 138.135 202.478 138.099 202.415 137.992C202.379 137.933 202.376 137.862 202.399 137.799L202.403 137.787C202.613 137.233 202.846 136.711 203.079 136.189C203.317 135.671 203.566 135.169 203.783 134.647L205.183 131.623C205.942 130.005 206.673 128.4 207.393 126.807C208.824 127.787 210.264 128.811 211.699 129.95Z" fill="#504563"/>
<path d="M223.114 143.196C222.908 143.401 222.703 143.607 222.489 143.809C220.836 145.43 218.998 146.873 216.981 148.067C216.875 148.13 216.736 148.095 216.673 147.988C216.637 147.929 216.633 147.857 216.657 147.794L216.661 147.782C216.875 147.229 217.108 146.707 217.337 146.185C217.574 145.667 217.827 145.165 218.045 144.643L219.441 141.618C219.82 140.812 220.192 140.009 220.56 139.206C221.43 140.428 222.284 141.753 223.114 143.196Z" fill="#504563"/>
<path d="M134.023 151.827C134.023 151.827 140.555 152.458 144.962 156.137C145.147 156.292 145.411 156.085 145.296 155.874C144.403 154.221 142.163 150.942 137.808 149.304L134.023 151.827Z" fill="#504563"/>
<g opacity="0.3">
<path d="M97.0148 139.98C97.0148 139.98 97.1132 145.172 108.333 150.247C109.849 150.932 109.616 153.146 107.99 153.501C107.942 153.512 107.894 153.522 107.846 153.533C107.071 153.705 107.033 154.797 107.794 155.025C111.436 156.117 117.453 158.941 121.209 166.101C121.209 166.101 124.188 155.749 136.128 151.762C136.128 151.762 112.685 152.774 97.0148 139.98Z" fill="#000072"/>
</g>
<g opacity="0.3">
<path d="M195.716 127.208C189.988 141.039 167.47 146.165 167.47 146.165C152.22 155.572 133.62 152.748 133.62 152.748C170.254 141.938 181.791 124.502 185.089 117.392C185.089 117.392 185.089 117.388 185.093 117.384C185.429 116.957 185.745 116.542 186.046 116.139C187.92 113.616 191.676 113.434 193.697 115.842C193.827 116.001 193.962 116.155 194.092 116.305C194.203 116.432 194.313 116.554 194.424 116.677C193.908 120.167 195.083 123.699 195.725 125.293C195.973 125.908 195.97 126.595 195.716 127.208Z" fill="#000072"/>
</g>
<g opacity="0.3">
<path d="M230.318 167.287C229.907 179.651 220.931 183.36 220.931 183.36C220.931 183.36 195.891 183.36 169.926 183.36H151.5C120.489 183.36 120.699 174.887 120.699 174.887H98.9247C91.7562 170.142 90.3723 163.396 91.345 156.944C91.5229 155.769 91.7759 154.607 92.0843 153.468L92.2306 153.452C92.2306 153.452 94.2669 176.666 121.209 168.449C121.209 168.449 128.018 173.257 147.06 169.007C147.803 168.841 148.562 168.809 149.318 168.9C153.161 169.355 166.122 170.332 176.208 164.444C178.181 163.294 179.534 161.336 180.052 159.114C181.42 153.239 186.757 140.898 207.405 142.599C206.286 142.567 188.363 142.326 183.333 162.519C183.333 162.519 187.971 162.096 196.101 167.259C195.792 167.196 185.702 165.104 178.126 169.568C176.797 170.351 176.782 172.289 178.094 173.099C180.898 174.831 186.085 177.156 193.313 176.753C203.4 176.183 227.881 174.633 227.25 151.91C228.891 156.157 229.788 159.869 230.144 163.104C230.31 164.598 230.361 165.99 230.318 167.287Z" fill="#000072"/>
</g>
<g opacity="0.5">
<path d="M185.811 167.011C185.811 167.011 185.743 148.268 207.405 142.599C207.405 142.599 193.05 142.232 187.08 153.561C181.111 164.89 182.935 167.529 182.935 167.529L185.811 167.011Z" fill="white"/>
</g>
<path d="M117.424 173.553C117.415 173.549 117.393 173.543 117.393 173.543L117.409 173.544C117.42 173.545 117.428 173.549 117.448 173.55C117.484 173.55 117.514 173.562 117.555 173.558C117.632 173.565 117.709 173.562 117.789 173.555C117.869 173.555 117.942 173.524 118.022 173.518C118.095 173.486 118.172 173.469 118.247 173.438C118.542 173.315 118.825 173.055 119.071 172.687C119.577 171.959 119.877 170.874 120.029 169.769C120.06 169.488 120.113 169.213 120.13 168.925L120.177 168.058C120.182 167.917 120.198 167.763 120.196 167.631L120.184 167.243C120.193 166.981 120.129 166.727 120.106 166.468C119.941 165.439 119.503 164.438 118.901 163.508C117.663 161.659 115.845 160.079 113.849 158.785C111.854 157.471 109.723 156.31 107.541 155.151L107.538 155.15C107.491 155.125 107.474 155.068 107.498 155.021C107.518 154.985 107.557 154.966 107.596 154.972C108.839 155.147 110.044 155.481 111.224 155.895C111.818 156.095 112.394 156.339 112.974 156.583C113.543 156.846 114.114 157.113 114.668 157.417C115.776 158.022 116.852 158.708 117.868 159.504C118.881 160.301 119.848 161.203 120.636 162.298C121.423 163.384 122.075 164.642 122.368 166.03C122.421 166.379 122.509 166.725 122.519 167.08L122.555 167.611C122.564 167.786 122.554 167.938 122.554 168.103L122.54 169.077C122.534 169.401 122.489 169.735 122.464 170.064C122.317 171.378 122.085 172.76 121.266 174.115C121.082 174.455 120.794 174.772 120.516 175.081C120.354 175.225 120.188 175.367 120.02 175.505C119.84 175.633 119.642 175.746 119.449 175.859C119.249 175.961 119.033 176.041 118.822 176.124C118.602 176.18 118.382 176.25 118.156 176.277C117.931 176.311 117.703 176.33 117.472 176.325C117.359 176.328 117.237 176.311 117.12 176.302C117.063 176.298 116.996 176.287 116.931 176.276L116.834 176.257L116.691 176.222C115.954 176.02 115.521 175.258 115.723 174.521C115.925 173.784 116.687 173.351 117.424 173.553Z" fill="#000072"/>
<path d="M129.83 177.055C120.822 177.055 119.152 174.796 118.852 173.824L121.496 173.008C121.448 172.851 121.396 172.783 121.395 172.782C121.407 172.797 122.64 174.288 129.83 174.288C138.564 174.288 148.08 172.692 148.175 172.676C148.293 172.656 148.413 172.652 148.532 172.663C148.75 172.682 170.469 174.514 181.939 163.648L183.842 165.657C171.901 176.97 150.804 175.622 148.462 175.434C147.073 175.662 138.247 177.055 129.83 177.055Z" fill="#000072"/>
<path d="M120.115 165.9C120.148 165.727 120.179 165.613 120.211 165.479C120.241 165.345 120.28 165.226 120.315 165.101C120.384 164.851 120.467 164.611 120.552 164.373C120.631 164.131 120.724 163.898 120.822 163.667C120.921 163.437 121.005 163.197 121.119 162.976C121.336 162.526 121.547 162.072 121.803 161.645L122.174 160.996L122.585 160.375C123.688 158.719 125.036 157.247 126.523 155.945C127.296 155.332 128.052 154.692 128.889 154.174L129.504 153.764C129.706 153.624 129.914 153.492 130.132 153.38L131.42 152.668C131.844 152.417 132.294 152.228 132.739 152.027L134.078 151.427C134.986 151.076 135.909 150.767 136.826 150.437L137.621 153.088C136.772 153.374 135.912 153.638 135.067 153.939L133.832 154.459C133.42 154.632 133.001 154.794 132.615 155.014L131.43 155.631C131.229 155.727 131.038 155.841 130.854 155.964L130.292 156.32C129.522 156.768 128.838 157.328 128.128 157.857C126.774 158.989 125.545 160.268 124.536 161.705L124.159 162.244L123.821 162.807C123.584 163.177 123.393 163.568 123.193 163.956C123.087 164.148 123.013 164.351 122.921 164.548C122.831 164.745 122.746 164.944 122.675 165.146C122.598 165.347 122.522 165.547 122.463 165.747C122.433 165.847 122.396 165.95 122.373 166.044L122.304 166.304L120.115 165.9Z" fill="#000072"/>
<path d="M207.461 142.607C205.821 142.815 204.228 143.16 202.674 143.6C201.122 144.041 199.611 144.579 198.171 145.243C195.289 146.554 192.656 148.342 190.588 150.65C189.542 151.788 188.605 153.026 187.847 154.375L187.549 154.872L187.284 155.389C187.111 155.735 186.92 156.072 186.761 156.425C186.461 157.142 186.129 157.842 185.889 158.586C185.761 158.953 185.617 159.315 185.501 159.687L185.179 160.814L185.017 161.378L184.886 161.951L184.621 163.099C184.457 163.867 184.353 164.652 184.214 165.428L183.932 167.789L183.921 167.878C183.859 168.394 183.51 168.807 183.054 168.975L183.053 168.976C182.722 169.109 182.314 169.298 181.947 169.477C181.57 169.661 181.197 169.859 180.828 170.062C180.09 170.471 179.371 170.916 178.677 171.392C177.287 172.343 176.01 173.437 174.9 174.656C173.802 175.881 172.879 177.241 172.261 178.715C171.628 180.185 171.327 181.765 171.311 183.36L171.311 183.383C171.304 184.147 170.678 184.761 169.914 184.753C169.15 184.746 168.536 184.125 168.543 183.36C168.557 181.406 168.938 179.433 169.712 177.637C170.469 175.833 171.575 174.217 172.845 172.802C174.127 171.394 175.568 170.167 177.109 169.112C177.879 168.583 178.671 168.092 179.487 167.641C179.895 167.416 180.307 167.198 180.728 166.992C181.159 166.784 181.556 166.595 182.048 166.397L182.05 166.396L181.172 167.583C181.364 164.21 182.002 160.814 183.228 157.592C184.438 154.372 186.326 151.35 188.805 148.922C190.044 147.711 191.416 146.642 192.883 145.745C194.352 144.85 195.92 144.14 197.531 143.603C199.143 143.065 200.805 142.72 202.472 142.543C203.306 142.453 204.142 142.408 204.976 142.417C205.809 142.421 206.643 142.472 207.461 142.607Z" fill="#000072"/>
<path d="M181.958 166.436C182.173 166.34 182.303 166.293 182.466 166.233C182.623 166.173 182.774 166.133 182.927 166.083C183.233 165.995 183.536 165.908 183.839 165.843C184.141 165.767 184.445 165.713 184.748 165.664C185.051 165.606 185.354 165.573 185.658 165.537C186.87 165.401 188.08 165.388 189.275 165.459C189.872 165.507 190.466 165.55 191.054 165.649C191.644 165.719 192.224 165.85 192.801 165.971C193.378 166.093 193.943 166.272 194.507 166.432C195.065 166.62 195.616 166.822 196.159 167.037C196.279 167.084 196.338 167.22 196.29 167.34C196.254 167.432 196.165 167.489 196.071 167.488L196.057 167.487C195.475 167.48 194.906 167.438 194.336 167.422C193.764 167.424 193.201 167.382 192.637 167.399C191.511 167.39 190.397 167.448 189.299 167.536C188.201 167.648 187.119 167.804 186.068 168.038C185.544 168.157 185.024 168.285 184.523 168.44C184.269 168.51 184.025 168.598 183.784 168.682L183.434 168.816C183.328 168.856 183.191 168.914 183.145 168.936L183.111 168.952C182.419 169.277 181.594 168.981 181.269 168.289C180.944 167.597 181.241 166.773 181.932 166.447C181.939 166.444 181.952 166.439 181.958 166.436Z" fill="#000072"/>
<path d="M174.845 183.528C174.796 183.179 174.8 182.935 174.812 182.642C174.827 182.361 174.858 182.082 174.914 181.803C175.025 181.248 175.192 180.694 175.477 180.169C175.745 179.644 176.125 179.149 176.615 178.786C177.119 178.435 177.717 178.248 178.273 178.319C177.945 178.792 177.752 179.195 177.643 179.599C177.538 180.006 177.504 180.401 177.475 180.796C177.46 181.195 177.478 181.605 177.506 182.014L177.552 182.628C177.556 182.73 177.573 182.83 177.576 182.93C177.584 183.022 177.592 183.143 177.592 183.192L174.845 183.528Z" fill="#000072"/>
<path d="M181.717 183.693C181.628 183.48 181.601 183.353 181.571 183.187C181.551 183.032 181.538 182.875 181.548 182.719C181.56 182.406 181.623 182.096 181.69 181.79C181.83 181.18 182.055 180.58 182.382 180.038C182.706 179.494 183.179 179.038 183.682 178.718C184.185 178.382 184.76 178.246 185.287 178.165L185.409 178.474C185.024 178.812 184.677 179.138 184.476 179.538C184.259 179.92 184.14 180.313 184.117 180.72C184.079 181.119 184.113 181.522 184.2 181.919C184.239 182.117 184.307 182.314 184.361 182.504C184.384 182.6 184.406 182.693 184.416 182.788C184.423 182.872 184.436 182.994 184.403 183.028L181.717 183.693Z" fill="#000072"/>
<path d="M131.666 175.826C131.589 175.409 131.579 175.094 131.575 174.733C131.577 174.382 131.595 174.034 131.646 173.686C131.734 172.991 131.915 172.301 132.184 171.64C132.463 170.98 132.845 170.353 133.334 169.829C133.832 169.309 134.454 168.921 135.104 168.745C134.78 169.352 134.561 169.905 134.423 170.463C134.301 171.03 134.239 171.578 134.215 172.131C134.195 172.685 134.225 173.24 134.26 173.792L134.399 175.39L131.666 175.826Z" fill="#000072"/>
<path d="M125.241 175.742C125.165 175.278 125.147 174.906 125.143 174.492C125.137 174.29 125.147 174.088 125.158 173.887C125.165 173.686 125.179 173.484 125.205 173.284C125.245 172.882 125.308 172.481 125.399 172.084C125.446 171.886 125.486 171.688 125.54 171.491L125.726 170.906C125.987 170.128 126.368 169.379 126.863 168.716C127.387 168.068 128.033 167.512 128.781 167.22C128.469 167.97 128.255 168.639 128.116 169.32C127.986 170.004 127.922 170.677 127.87 171.35C127.842 172.029 127.848 172.708 127.874 173.387C127.888 173.726 127.904 174.066 127.926 174.403L127.984 175.373L125.241 175.742Z" fill="#000072"/>
<path d="M105.291 174.62C105.291 174.636 105.301 174.606 105.308 174.59C105.316 174.573 105.324 174.548 105.332 174.524L105.38 174.377C105.414 174.276 105.44 174.165 105.469 174.056C105.516 173.834 105.574 173.605 105.609 173.369C105.649 173.134 105.671 172.894 105.692 172.65C105.715 172.406 105.728 172.158 105.727 171.907C105.721 171.408 105.682 170.896 105.604 170.375C105.538 169.848 105.426 169.318 105.323 168.745C105.774 169.099 106.191 169.514 106.526 169.993C106.879 170.464 107.14 170.995 107.377 171.546C107.619 172.099 107.789 172.687 107.898 173.296C107.955 173.6 107.998 173.912 108.014 174.229C108.02 174.389 108.028 174.548 108.025 174.715C108.024 174.796 108.023 174.881 108.015 174.968L108.004 175.103C107.998 175.152 107.996 175.189 107.981 175.27L105.291 174.62Z" fill="#000072"/>
<path d="M112.736 174.614C112.802 174.422 112.885 174.156 112.952 173.919C113.019 173.674 113.093 173.426 113.157 173.176C113.224 172.927 113.28 172.674 113.332 172.421C113.393 172.167 113.442 171.913 113.489 171.656C113.575 171.143 113.624 170.626 113.656 170.098C113.677 169.571 113.681 169.034 113.626 168.448C114.057 168.843 114.391 169.355 114.641 169.897C114.887 170.44 115.042 171.014 115.177 171.592C115.312 172.172 115.394 172.758 115.439 173.348C115.463 173.643 115.483 173.939 115.481 174.236C115.481 174.541 115.484 174.816 115.448 175.162L112.736 174.614Z" fill="#000072"/>
<path d="M220.933 184.732H151.499C131.521 184.732 123.901 181.219 121.027 178.273C120.301 177.527 119.883 176.83 119.645 176.259H98.9258C98.6564 176.259 98.3931 176.18 98.1686 176.031C91.8463 171.846 89.0382 165.793 89.8225 158.042C90.4615 151.726 93.4212 145.592 95.7916 141.559C97.6973 138.317 101.58 136.687 105.235 137.596C153.332 149.552 177.001 126 184.945 115.319C186.108 113.756 187.891 112.826 189.837 112.768C191.737 112.723 193.529 113.511 194.746 114.96C198.025 118.865 201.837 121.42 205.873 124.125C213.22 129.049 221.547 134.63 227.875 149.789C232.115 159.943 232.848 168.519 230.055 175.281C227.202 182.188 221.69 184.532 221.457 184.628C221.291 184.697 221.113 184.732 220.933 184.732ZM122.076 174.883C122.18 175.413 124.041 181.989 151.499 181.989H220.636C222.574 181.052 235.002 173.98 225.344 150.845C219.334 136.449 211.714 131.342 204.345 126.404C200.143 123.587 196.174 120.927 192.645 116.724C191.971 115.921 190.98 115.485 189.917 115.51C188.815 115.543 187.805 116.07 187.146 116.956C182.5 123.203 174.19 131.864 160.985 137.647C144.908 144.688 125.928 145.566 104.573 140.258C102.09 139.641 99.4505 140.747 98.1567 142.949C93.4936 150.883 87.5025 165.335 99.3459 173.516H120.701C121.096 173.516 121.478 173.613 121.739 173.911C121.99 174.199 122.116 174.509 122.076 174.883Z" fill="#000072"/>
<path d="M97.8255 175.559H22.3053L11.2185 151.001L1.95835 130.492C0.254206 126.716 3.01801 122.442 7.15778 122.442H67.4079C71.3262 122.442 74.8848 124.739 76.494 128.309L91.519 161.586L97.8255 175.559Z" fill="#D0CFE5"/>
<g opacity="0.3">
<path d="M97.8255 175.559H22.3053L11.2184 151.001C25.0437 164.653 58.2663 172.459 91.519 161.586L97.8255 175.559Z" fill="#000072"/>
</g>
<g opacity="0.5">
<path d="M4.39003 126.395H64.6401C68.5585 126.395 72.117 128.693 73.7263 132.263L88.7512 165.539L93.2732 175.559H97.8255L91.519 161.586L76.494 128.309C74.8848 124.739 71.3262 122.442 67.4079 122.442H7.15779C4.2348 122.442 2.00027 124.573 1.53766 127.155C2.36443 126.676 3.3318 126.395 4.39003 126.395Z" fill="white"/>
</g>
<path d="M46.1394 152.344C42.1494 152.05 35.4597 161.173 46.6076 160.661C57.7555 160.149 51.3885 152.731 46.1394 152.344Z" fill="#000072"/>
<path d="M39.195 153.622C40.5941 153.622 41.7282 152.488 41.7282 151.089C41.7282 149.69 40.5941 148.556 39.195 148.556C37.796 148.556 36.6618 149.69 36.6618 151.089C36.6618 152.488 37.796 153.622 39.195 153.622Z" fill="#000072"/>
<path d="M52.4445 153.267C53.8436 153.267 54.9777 152.133 54.9777 150.734C54.9777 149.335 53.8436 148.201 52.4445 148.201C51.0455 148.201 49.9113 149.335 49.9113 150.734C49.9113 152.133 51.0455 153.267 52.4445 153.267Z" fill="#000072"/>
<path d="M46.4702 150.034C48.1247 149.349 48.9104 147.452 48.225 145.798C47.5397 144.143 45.6429 143.357 43.9883 144.043C42.3338 144.728 41.5481 146.625 42.2335 148.28C42.9188 149.934 44.8157 150.72 46.4702 150.034Z" fill="#000072"/>
<path d="M97.8244 177.008H22.3042C21.7337 177.008 21.2163 176.674 20.9815 176.154L0.637257 131.087C-0.366489 128.864 -0.175752 126.313 1.14771 124.264C2.47117 122.214 4.7178 120.991 7.15761 120.991H67.4083C71.8887 120.991 75.9749 123.629 77.8183 127.713L99.1471 174.96C99.3498 175.409 99.3108 175.931 99.0435 176.345C98.7762 176.759 98.3171 177.008 97.8244 177.008ZM23.2414 174.106H95.5772L75.1729 128.907C73.7981 125.861 70.7502 123.893 67.4083 123.893H7.15761C5.68588 123.893 4.38409 124.602 3.58579 125.838C2.78764 127.074 2.67725 128.552 3.28268 129.894L23.2414 174.106Z" fill="#000072"/>
<path d="M146.046 182.905H22.8716C20.8424 182.905 19.1975 181.26 19.1975 179.231C19.1975 177.202 20.8424 175.557 22.8716 175.557H146.046C148.075 175.557 149.72 177.202 149.72 179.231C149.72 181.26 148.075 182.905 146.046 182.905Z" fill="#D0CFE5"/>
<g opacity="0.3">
<path d="M146.046 179.742H22.8716C21.4096 179.742 20.1507 178.886 19.5592 177.65C19.3298 178.129 19.1975 178.664 19.1975 179.231C19.1975 181.26 20.8424 182.905 22.8716 182.905H146.046C148.075 182.905 149.72 181.26 149.72 179.231C149.72 178.664 149.588 178.129 149.358 177.65C148.767 178.886 147.508 179.742 146.046 179.742Z" fill="#000072"/>
</g>
<path d="M146.046 184.356H22.8716C20.0456 184.356 17.7463 182.057 17.7463 179.231C17.7463 176.405 20.0456 174.106 22.8716 174.106H146.046C148.872 174.106 151.171 176.405 151.171 179.231C151.171 182.057 148.872 184.356 146.046 184.356ZM22.8716 177.008C21.6459 177.008 20.6485 178.006 20.6485 179.231C20.6485 180.457 21.6458 181.454 22.8716 181.454H146.046C147.271 181.454 148.269 180.457 148.269 179.231C148.269 178.006 147.271 177.008 146.046 177.008H22.8716Z" fill="#000072"/>
<path d="M96.794 183.927C93.1105 180.213 95.1833 176.16 96.794 174.536L98.8611 176.573C98.4265 177.022 96.3839 179.392 98.8547 181.884L96.794 183.927Z" fill="#000072"/>
<path d="M189.671 43.7396L173.271 75.8305C171.403 73.531 169.475 71.5434 167.535 69.8296C155.097 58.8234 142.235 58.8491 142.235 58.8491C149.861 50.946 161.192 44.6287 161.192 44.6287C180.485 34.738 186.713 38.1147 188.722 41.1281C189.611 42.4702 189.671 43.7396 189.671 43.7396Z" fill="#726789"/>
<g opacity="0.3">
<path d="M157.871 51.5171C155.115 53.5669 155.413 57.7269 158.387 59.446C165.057 63.3027 167.53 69.7611 167.53 69.7611L167.535 69.8295C155.097 58.8233 142.235 58.849 142.235 58.849C149.861 50.9459 161.192 44.6286 161.192 44.6286C180.485 34.738 186.713 38.1146 188.722 41.128C178.335 38.1417 165.496 45.8439 157.871 51.5171Z" fill="#000072"/>
</g>
<path d="M173.269 77.1753C172.866 77.1753 172.482 76.9942 172.225 76.678C159.004 60.4047 142.401 60.1931 142.235 60.1931C141.695 60.1923 141.207 59.8691 140.997 59.3726C140.786 58.8756 140.892 58.301 141.266 57.913C148.942 49.9611 160.069 43.7147 160.538 43.4526C160.552 43.4452 160.566 43.4379 160.58 43.4306C173.271 36.9236 182.274 35.1138 187.339 38.053C190.811 40.0675 191.007 43.5299 191.014 43.6765C191.024 43.9097 190.974 44.1418 190.868 44.35L174.467 76.4421C174.26 76.8471 173.862 77.1201 173.41 77.1677C173.363 77.1726 173.316 77.1753 173.269 77.1753ZM145.275 57.7551C150.738 58.51 162.564 61.5113 172.992 73.4148L188.281 43.4985C188.152 42.8471 187.674 41.3346 185.937 40.3511C183.55 39.0005 177.245 37.9139 161.83 45.8136C161.354 46.0817 152.354 51.1917 145.275 57.7551Z" fill="#000072"/>
<path d="M187.324 92.3376C186.414 94.3166 185.388 96.3298 184.238 98.3814L167.53 69.7611C167.53 69.7611 170.967 50.9375 184.559 42.5215C186.508 41.3119 189.085 42.1796 189.966 44.2996C190.333 45.1843 190.727 46.223 191.115 47.4027C191.12 47.407 191.12 47.407 191.12 47.407C193.962 55.9938 196.616 72.1504 187.324 92.3376Z" fill="#FF8DC1"/>
<g opacity="0.3">
<path d="M191.115 47.4027C190.974 47.2317 187.205 42.8207 182.49 48.6122C180.071 51.5838 178.799 53.2866 178.132 54.2451C177.832 54.6757 178.212 55.2512 178.727 55.1486L181.027 54.6897C182.241 54.4475 183.418 55.2216 183.687 56.4298C184.202 58.7387 184.581 62.8346 182.964 68.3048C182.642 69.3942 182.721 70.5742 183.24 71.5849C184.185 73.4257 185.315 76.9568 183.525 81.5012C183.16 82.4263 183.129 83.4507 183.427 84.3993C184.019 86.2839 185.232 89.4779 187.324 92.3377C186.414 94.3167 185.388 96.3299 184.238 98.3815L167.53 69.7612C167.53 69.7612 170.967 50.9376 184.559 42.5216C186.508 41.312 189.085 42.1797 189.966 44.2997C190.333 45.1843 190.726 46.223 191.115 47.4027Z" fill="#000072"/>
</g>
<path d="M184.24 99.7282C183.762 99.7282 183.32 99.4741 183.078 99.0609L166.368 70.4377C166.206 70.1601 166.149 69.8338 166.206 69.5176C166.351 68.7249 169.911 50.0069 183.849 41.3774C185.104 40.6005 186.634 40.4163 188.048 40.8716C189.481 41.3334 190.633 42.3949 191.209 43.7842C194.429 51.5487 200.311 72.4769 185.414 99.0404C185.178 99.4617 184.735 99.7239 184.252 99.7281C184.248 99.7282 184.244 99.7282 184.24 99.7282ZM168.952 69.5269L184.198 95.641C197.084 71.1053 191.709 52.0144 188.723 44.8151C188.45 44.156 187.903 43.6525 187.222 43.4331C186.552 43.2169 185.857 43.2992 185.266 43.6655C173.531 50.9311 169.596 66.6001 168.952 69.5269Z" fill="#000072"/>
<path d="M170.315 60.7803L179.397 58.962C179.397 58.962 180.84 65.7168 177.543 69.701C177.543 69.701 185.285 79.089 175.884 84.0693L167.53 69.7593C167.53 69.7593 168.731 64.2861 170.315 60.7803Z" fill="#726789"/>
<path d="M175.885 85.4149C175.421 85.4149 174.972 85.1747 174.722 84.7476L166.368 70.4377C166.198 70.1459 166.143 69.801 166.216 69.4708C166.266 69.2418 167.465 63.8187 169.088 60.2262C169.267 59.8308 169.625 59.5462 170.051 59.4609L179.133 57.6426C179.856 57.4997 180.56 57.9608 180.713 58.6809C180.774 58.964 182.07 65.2563 179.209 69.6964C180.334 71.3401 182.491 75.1107 181.724 78.953C181.199 81.5833 179.446 83.7047 176.514 85.258C176.314 85.3643 176.098 85.4149 175.885 85.4149ZM168.961 69.5416L176.359 82.2139C177.876 81.1675 178.792 79.8971 179.085 78.4264C179.71 75.2952 177.434 71.6842 176.505 70.5571C176.094 70.0593 176.095 69.3404 176.506 68.843C178.535 66.3915 178.473 62.5619 178.269 60.5603L171.271 61.9611C170.161 64.6513 169.27 68.2322 168.961 69.5416Z" fill="#000072"/>
<path d="M128.447 62.6159C128.447 62.6159 115.59 62.2223 102.842 72.8688C101.957 73.6055 101.076 74.3926 100.201 75.2437C99.1045 76.3032 98.0113 77.4537 96.9382 78.705L81.4614 46.1569C81.4614 46.1569 81.4648 46.1132 81.4749 46.0325C81.5253 45.6793 81.7305 44.6432 82.484 43.5735C84.5797 40.6201 90.9003 37.4245 109.902 47.859C109.902 47.8589 121.05 54.499 128.447 62.6159Z" fill="#726789"/>
<g opacity="0.3">
<path d="M128.447 62.6159C128.447 62.6159 115.59 62.2223 102.842 72.8688C101.957 73.6055 101.076 74.3926 100.201 75.2437C99.7268 74.5137 99.4644 73.6728 99.4644 72.7074C99.4644 66.3037 105.46 61.5747 109.678 59.0398C111.572 57.9019 111.737 55.2295 109.996 53.8694C88.7743 37.2892 81.4614 46.1569 81.4614 46.1569C81.4614 46.1569 81.4648 46.1132 81.4748 46.0325C81.5253 45.6793 81.7305 44.6432 82.4839 43.5735C84.5796 40.6201 90.9002 37.4245 109.902 47.859C109.902 47.8589 121.05 54.499 128.447 62.6159Z" fill="#000072"/>
</g>
<path d="M96.9392 80.0493C96.8796 80.0493 96.8199 80.045 96.7598 80.0373C96.309 79.9767 95.9192 79.6925 95.7238 79.2813L80.2471 46.7339C80.1467 46.5231 80.1031 46.2898 80.1205 46.0566C80.1313 45.9106 80.4265 42.4552 83.9543 40.5403C89.1006 37.7478 98.0485 39.8129 110.549 46.6805C110.563 46.6878 110.576 46.6955 110.59 46.7037C111.052 46.9789 121.996 53.5408 129.441 61.7089C129.805 62.1082 129.894 62.6866 129.669 63.1773C129.443 63.6685 128.94 63.9739 128.405 63.96C128.237 63.9553 111.639 63.6913 97.9585 79.5815C97.7013 79.8805 97.3279 80.0493 96.9392 80.0493ZM82.8578 45.9577L97.2848 76.2976C108.049 64.6972 119.956 62.0349 125.439 61.4364C118.546 54.6679 109.701 49.3096 109.231 49.027C93.9773 40.6511 87.6512 41.5953 85.2381 42.9057C83.5198 43.8383 83.0037 45.3268 82.8578 45.9577Z" fill="#000072"/>
<path d="M82.4181 94.8033C83.2716 96.8075 84.2395 98.8491 85.3302 100.933L102.849 72.8015C102.849 72.8015 99.9517 53.8873 86.6056 45.0865C84.6919 43.8217 82.0908 44.6154 81.1502 46.7093C80.7575 47.5832 80.3347 48.6102 79.9122 49.7783C79.9078 49.7824 79.9078 49.7824 79.9078 49.7824C76.8213 58.2847 73.7065 74.3589 82.4181 94.8033Z" fill="#FF8DC1"/>
<g opacity="0.3">
<path d="M79.9122 49.7784C80.0581 49.6116 83.9524 45.3101 88.4995 51.2339C90.8325 54.2734 92.0558 56.0118 92.6954 56.989C92.9827 57.4279 92.5859 57.9923 92.0746 57.875L89.7888 57.3506C88.5824 57.0738 87.3834 57.814 87.0795 59.0139C86.4988 61.3072 86.0027 65.3905 87.4633 70.9047C87.7543 72.0029 87.641 73.1802 87.0935 74.1756C86.0962 75.9887 84.5505 78.5029 86.2102 83.0965C86.5481 84.0317 85.7682 85.6095 85.443 86.5492C84.7971 88.4161 84.1283 91.545 82.418 94.8032C83.2715 96.8074 84.2394 98.8491 85.3301 100.933L102.849 72.8015C102.849 72.8015 99.9516 53.8873 86.6056 45.0864C84.6918 43.8217 82.0907 44.6154 81.1501 46.7093C80.7574 47.5833 80.3347 48.6103 79.9122 49.7784Z" fill="#000072"/>
</g>
<path d="M85.3284 102.279C85.3116 102.279 85.295 102.279 85.2781 102.278C84.7958 102.26 84.3601 101.986 84.1362 101.558C70.0039 74.5794 76.481 53.8282 79.9218 46.1589C80.5375 44.7866 81.7198 43.7583 83.1655 43.3378C84.5918 42.9246 86.1159 43.1514 87.3476 43.9637C101.034 52.9875 104.057 71.7996 104.179 72.5958C104.228 72.9136 104.162 73.2383 103.992 73.5109L86.4704 101.645C86.2242 102.04 85.7918 102.279 85.3284 102.279ZM84.5921 45.8241C84.3685 45.8241 84.1419 45.8566 83.9171 45.9218C83.2304 46.1218 82.6692 46.6095 82.3772 47.2601C79.187 54.3714 73.2695 73.3009 85.4489 98.1945L101.434 72.5267C100.874 69.5829 97.3893 53.8077 85.8663 46.2103C85.4788 45.9546 85.0413 45.8241 84.5921 45.8241Z" fill="#000072"/>
<path d="M100.322 63.7448L91.2953 61.6678C91.2953 61.6678 89.6603 68.3787 92.8424 72.4554C92.8424 72.4554 84.8348 81.6184 94.0897 86.8652L102.849 72.7997C102.849 72.7997 101.806 67.2945 100.322 63.7448Z" fill="#726789"/>
<path d="M94.0886 88.2108C93.8635 88.2108 93.6355 88.1544 93.4262 88.0355C90.5395 86.3991 88.8479 84.2287 88.3983 81.5841C87.7415 77.7217 90.0049 74.0141 91.1762 72.4032C88.4434 67.8836 89.9194 61.6303 89.9879 61.3491C90.1623 60.6332 90.8788 60.1927 91.597 60.3564L100.624 62.4334C101.047 62.5306 101.397 62.8257 101.564 63.2261C103.084 66.8634 104.128 72.3185 104.171 72.5491C104.234 72.8808 104.17 73.2245 103.992 73.511L95.232 87.5764C94.9777 87.9846 94.5388 88.2108 94.0886 88.2108ZM92.3773 63.2972C92.1165 65.2915 91.9451 69.1188 93.903 71.6275C94.2999 72.136 94.2801 72.8549 93.8555 73.3407C93.8225 73.3789 90.4045 77.3699 91.0528 81.1424C91.3063 82.6174 92.1842 83.9097 93.668 84.9971L101.425 72.541C101.154 71.2231 100.365 67.6183 99.3331 64.8976L92.3773 63.2972Z" fill="#000072"/>
<path d="M186.284 118.986C186.284 118.986 187.986 121.271 190.856 123.094C192.383 124.066 192.692 126.168 191.481 127.51C187.159 132.307 177.622 141.447 166.993 142.351C166.902 142.362 166.808 142.368 166.714 142.375C166.714 142.375 128.763 166.921 96.6524 139.782C96.6524 139.782 86.5543 137.995 80.1025 126.599C79.6719 125.835 79.6887 124.944 80.0654 124.217C80.2774 123.797 80.6104 123.433 81.0477 123.185C81.8113 122.747 82.7969 122.317 84.0011 122.051C84.0011 122.051 81.2562 120.51 79.0866 115.865C78.5686 114.755 78.942 113.423 79.9578 112.74C81.078 111.99 82.4807 110.809 83.3283 109.201C83.705 108.488 83.9708 107.687 84.0549 106.803C84.1155 106.174 84.213 104.869 84.4552 103.062C84.546 102.383 84.657 101.636 84.7949 100.825C85.0472 99.3352 85.3836 97.6364 85.8444 95.7965C88.3841 85.584 94.6173 70.9548 110.262 62.4074C110.652 62.1921 111.049 61.9835 111.45 61.7784C115.5 59.7063 119.782 58.2194 124.168 57.3247C124.511 57.2541 124.858 57.1868 125.201 57.1229C130.516 56.1575 135.962 56.0532 141.324 56.8235C141.966 56.9143 142.609 57.022 143.248 57.1398C146.073 57.6578 148.869 58.4247 151.597 59.4373C152.424 59.7434 153.262 60.0764 154.103 60.4431C157.066 61.7179 160.117 63.346 163.114 65.4349C170.918 70.8641 178.369 79.3846 183.058 92.7322C183.597 94.2593 184.094 95.8504 184.555 97.5054C184.555 97.5054 184.579 97.8822 184.68 98.5113C184.75 98.962 184.858 99.5405 185.023 100.203C185.591 102.477 186.819 105.73 189.45 108.125L189.453 108.128C189.994 108.626 190.593 109.08 191.263 109.484C192.501 110.234 193.015 111.788 192.433 113.117C191.424 115.431 189.5 118.502 186.284 118.986Z" fill="#726789"/>
<path d="M169.243 140.141L166.993 142.351C166.902 142.362 166.808 142.368 166.714 142.375C166.714 142.375 128.763 166.921 96.6523 139.781C96.6523 139.781 100.305 124.787 113.398 121.4C114.061 121.229 114.691 120.951 115.251 120.557C117.563 118.926 125.049 114.853 136.289 120.445C137.147 120.872 138.092 121.086 139.05 121.046C144.179 120.832 161.835 121.515 169.243 140.141Z" fill="white"/>
<g opacity="0.3">
<path d="M121.898 120.067C121.898 120.067 121.7 127.854 113.05 124.033C113.05 124.033 111.262 126.989 115.382 129.907C115.382 129.907 124.583 140.106 135.251 131.24C135.251 131.24 139.72 128.897 139.252 124.284C139.252 124.284 137.358 124.695 133.415 124.945C130.822 125.109 128.384 123.689 127.24 121.356C126.898 120.657 126.549 119.827 126.205 118.842L121.898 120.067Z" fill="#000072"/>
</g>
<path d="M111.92 97.2633C112.319 98.8254 110.474 99.9634 109.234 98.9323C108.24 98.1054 107.014 97.3596 105.568 96.9755C101.824 95.9812 109.928 89.4695 111.92 97.2633Z" fill="white"/>
<path d="M143.051 97.6877C142.602 98.9564 144.063 100.025 145.161 99.2468C146.694 98.1602 148.793 97.2232 151.532 97.1183C157.678 96.8829 147.382 85.4671 143.051 97.6877Z" fill="white"/>
<path d="M141.324 56.8235C141.226 56.9345 141.128 57.0421 141.024 57.1632C140.863 57.3852 140.688 57.5938 140.499 57.7922C139.79 58.7071 138.935 59.6625 138.111 60.8364C137.903 61.1257 137.684 61.4116 137.459 61.7009C137.337 61.8354 137.24 61.9969 137.139 62.1583L136.836 62.6427C136.439 63.2953 135.982 63.9142 135.635 64.6442C135.265 65.3539 134.875 66.0637 134.505 66.8003L133.499 69.1079L133.24 69.6933C133.146 69.8884 133.069 70.0869 133.002 70.2921L132.561 71.5131L131.656 73.9956C131.411 74.8467 131.151 75.7045 130.889 76.5689L130.489 77.8674L130.287 78.5234L130.122 79.1861L129.446 81.867L129.083 83.2192L128.901 83.9021L128.757 84.5849C128.619 85.2375 128.477 85.8901 128.333 86.546C128.09 87.619 126.587 87.6964 126.24 86.6536C126.022 86.0011 125.81 85.3451 125.605 84.6857C125.05 82.8323 124.633 80.9418 124.195 79.0345L124.037 78.3147L123.919 77.5915L123.701 76.135C123.553 75.1628 123.411 74.1806 123.284 73.195C123.2 72.2026 123.139 71.2002 123.082 70.1945C123.031 69.1887 122.944 68.1728 123.008 67.1469L123.105 64.0421C123.203 62.9959 123.344 61.9431 123.475 60.8801L123.576 60.0795C123.61 59.8137 123.684 59.548 123.734 59.2789L124.003 58.0713L124.091 57.6677L124.168 57.3246C124.511 57.254 124.858 57.1867 125.201 57.1228C130.516 56.1574 135.962 56.0531 141.324 56.8235Z" fill="#504563"/>
<path d="M124.003 58.0714C123.839 58.1623 123.667 58.2497 123.492 58.327C123.573 58.3069 123.65 58.2799 123.727 58.2497L123.754 58.2699C123.771 58.2833 123.788 58.2867 123.798 58.2968C123.778 58.3506 123.761 58.4011 123.734 58.4414L123.68 58.5255L123.616 58.6162C123.593 58.6431 123.573 58.6734 123.549 58.7003C123.526 58.7239 123.499 58.7542 123.472 58.7945C123.371 58.9458 123.253 59.0602 123.132 59.2048C123.011 59.3663 122.883 59.5177 122.745 59.6623C122.231 60.3317 121.605 61.028 121.006 61.8858C120.851 62.0943 120.693 62.3062 120.528 62.5147C120.441 62.6157 120.367 62.7334 120.296 62.8512L120.074 63.201C119.785 63.6787 119.452 64.1294 119.196 64.6643C118.927 65.1823 118.641 65.7003 118.372 66.2385L117.636 67.9237L117.451 68.3509C117.38 68.4922 117.326 68.6369 117.276 68.7848L116.953 69.6796L116.293 71.4893C116.115 72.1116 115.923 72.7373 115.732 73.3663L115.442 74.315L115.291 74.796L115.173 75.2803L114.679 77.2347L114.416 78.2237L114.282 78.7181L114.178 79.2193C114.077 79.6937 113.972 80.1713 113.865 80.6489C113.69 81.4327 112.593 81.4898 112.341 80.7297C112.183 80.2519 112.028 79.771 111.873 79.29C111.47 77.9411 111.167 76.5619 110.847 75.1659L110.733 74.6446L110.646 74.1131L110.484 73.0535C110.38 72.3404 110.276 71.6239 110.181 70.904C110.121 70.1807 110.077 69.4508 110.037 68.7141C110 67.9808 109.936 67.2408 109.98 66.4907L110.05 64.2235C110.107 63.6247 110.185 63.0159 110.262 62.407C110.652 62.1918 111.049 61.9832 111.45 61.778C115.5 59.7059 119.782 58.2191 124.168 57.3244C124.511 57.2538 124.858 57.1865 125.201 57.1226C124.858 57.4895 124.454 57.809 124.003 58.0714Z" fill="#504563"/>
<path d="M154.103 60.4429C153.662 60.8163 153.191 61.2199 152.72 61.6841C152.532 61.8657 152.337 62.044 152.135 62.219C152.03 62.3031 151.94 62.404 151.845 62.5083L151.566 62.8144C151.196 63.2315 150.786 63.615 150.439 64.0926C150.083 64.5535 149.706 65.0143 149.346 65.4919L148.32 67.0191L148.058 67.4059C147.967 67.5304 147.883 67.6649 147.805 67.8028L147.331 68.6236L146.356 70.2853C146.066 70.8639 145.767 71.4458 145.464 72.0311L145.01 72.9124L144.778 73.3564L144.573 73.8106L143.735 75.6472L143.298 76.5689L143.076 77.0365L142.884 77.5074C142.699 77.9581 142.511 78.4089 142.319 78.8596C142.006 79.5962 140.916 79.455 140.805 78.6611C140.735 78.1633 140.667 77.6654 140.607 77.1642C140.452 75.7649 140.402 74.3521 140.338 72.9225L140.318 72.3876L140.328 71.8528L140.361 70.7764C140.385 70.06 140.412 69.3367 140.449 68.6101C140.52 67.8869 140.607 67.1603 140.698 66.4304C140.795 65.7004 140.866 64.9604 141.044 64.2304L141.522 62.0137C141.73 61.2804 141.973 60.5404 142.205 59.7936L142.38 59.2352C142.44 59.0468 142.528 58.8652 142.602 58.6801L143.066 57.5701L143.248 57.1395C146.073 57.6576 148.869 58.4245 151.597 59.437C152.424 59.7432 153.262 60.0762 154.103 60.4429Z" fill="#504563"/>
<path d="M189.449 108.125L188.057 107.637C187.317 107.385 186.567 107.136 185.81 106.89C184.296 106.399 182.745 105.958 181.168 105.572C180.377 105.356 179.577 105.218 178.766 105.023C177.959 104.882 177.135 104.684 176.304 104.552C174.625 104.203 172.92 104.014 171.056 103.647C171.433 103.372 171.827 103.126 172.227 102.877C172.63 102.642 173.037 102.396 173.461 102.214C173.882 102.019 174.309 101.831 174.743 101.649C175.18 101.478 175.621 101.347 176.068 101.199L176.741 100.993C176.966 100.93 177.192 100.886 177.421 100.829C177.875 100.724 178.332 100.634 178.793 100.536C179.715 100.411 180.65 100.27 181.582 100.227C182.725 100.149 183.876 100.142 185.023 100.203C185.591 102.477 186.819 105.73 189.449 108.125Z" fill="#504563"/>
<path d="M184.68 98.511C184.104 98.3495 183.522 98.2016 182.937 98.0569C182.147 97.8416 181.349 97.7037 180.539 97.5119C179.731 97.3707 178.907 97.1688 178.076 97.0376C176.398 96.6912 174.693 96.5027 172.826 96.1327C173.206 95.8569 173.599 95.6113 174 95.3624C174.4 95.1269 174.807 94.8814 175.231 94.6997C175.654 94.5046 176.082 94.3163 176.516 94.1379C176.95 93.963 177.394 93.8318 177.838 93.6872L178.51 93.4787C178.736 93.4148 178.964 93.371 179.19 93.3139C179.644 93.2096 180.105 93.1188 180.566 93.0246C181.386 92.9103 182.221 92.7891 183.058 92.7319C183.596 94.2591 184.094 95.8502 184.555 97.5052C184.555 97.5052 184.579 97.8819 184.68 98.511Z" fill="#504563"/>
<path d="M96.1982 106.537C94.3346 106.904 92.6292 107.092 90.9507 107.442C90.1198 107.573 89.2957 107.772 88.4884 107.913C87.6778 108.108 86.8772 108.246 86.0867 108.461C85.1549 108.69 84.2366 108.935 83.3284 109.201C83.7051 108.488 83.9709 107.687 84.0549 106.803C84.1155 106.174 84.2131 104.869 84.4552 103.062C84.8623 103.069 85.2693 103.089 85.673 103.116C86.6048 103.16 87.5399 103.298 88.4616 103.425C88.9225 103.523 89.38 103.611 89.834 103.718C90.0628 103.772 90.2882 103.816 90.5135 103.883L91.1863 104.088C91.6337 104.233 92.0743 104.367 92.5082 104.539C92.9455 104.717 93.3727 104.906 93.7932 105.104C94.217 105.282 94.6241 105.531 95.0277 105.767C95.4279 106.012 95.8215 106.261 96.1982 106.537Z" fill="#504563"/>
<path d="M94.4288 99.0223C92.562 99.3923 90.8565 99.5773 89.1779 99.9272C88.3471 100.058 87.5229 100.26 86.7157 100.398C86.0664 100.553 85.4273 100.674 84.7949 100.825C85.0472 99.3351 85.3836 97.6363 85.8445 95.7964C86.127 95.8334 86.4095 95.8737 86.6888 95.9141C87.1496 96.0083 87.6104 96.0992 88.0646 96.2034C88.29 96.2606 88.5187 96.3043 88.744 96.3682L89.4168 96.5734C89.8609 96.7215 90.3049 96.8526 90.7388 97.0242C91.1728 97.2058 91.6 97.3942 92.0204 97.5893C92.4443 97.7709 92.8546 98.0164 93.2549 98.2519C93.6552 98.5009 94.0487 98.7464 94.4288 99.0223Z" fill="#504563"/>
<g opacity="0.3">
<path d="M186.85 118.872C186.592 118.938 186.486 119.245 186.659 119.448C187.309 120.208 188.775 121.772 190.855 123.094C192.383 124.066 192.692 126.168 191.481 127.51C187.159 132.307 177.622 141.447 166.993 142.351C166.902 142.362 166.808 142.368 166.714 142.375C166.714 142.375 128.818 166.885 96.7225 139.841C96.6779 139.803 96.6245 139.777 96.5674 139.765C95.5808 139.563 86.2085 137.385 80.1024 126.599C79.7965 126.056 79.7164 125.449 79.8307 124.883C79.8904 124.587 80.2789 124.51 80.4628 124.749C82.1341 126.918 85.1766 130.057 89.871 132.066C90.128 132.176 90.4092 131.97 90.3707 131.693C90.2884 131.1 90.2181 130.109 90.3691 128.816C90.4056 128.503 90.7944 128.38 90.9977 128.621C93.7968 131.938 108.123 147.225 132.948 145.295C160.77 143.132 196.036 99.8465 165.644 68.2402C165.634 68.2301 165.624 68.22 165.615 68.2098C165.304 67.8855 165.754 67.4029 166.103 67.6868C172.789 73.1357 178.972 81.1013 183.058 92.732C183.592 94.2482 184.087 95.8274 184.545 97.4696C184.552 97.4929 184.556 97.5149 184.557 97.5391C184.566 97.6445 184.596 97.9918 184.679 98.511C184.75 98.9617 184.858 99.5403 185.023 100.203C185.591 102.477 186.819 105.73 189.449 108.125L189.453 108.128C189.994 108.626 190.593 109.08 191.262 109.484C192.5 110.234 193.015 111.788 192.433 113.117C191.485 115.292 189.728 118.136 186.85 118.872Z" fill="#000072"/>
</g>
<g opacity="0.5">
<path d="M154.103 60.4429C153.262 60.0762 152.424 59.7432 151.597 59.4371C148.869 58.4246 146.073 57.6577 143.248 57.1396C142.608 57.0219 141.966 56.9142 141.323 56.8234C135.962 56.0531 130.516 56.1574 125.201 57.1228C124.858 57.1867 124.511 57.254 124.168 57.3246C119.782 58.2193 115.5 59.7062 111.45 61.7782C111.049 61.9834 110.652 62.192 110.262 62.4072C94.6171 70.9547 88.384 85.5838 85.8443 95.7963C85.3834 97.6363 85.0471 99.335 84.7947 100.825C84.6568 101.636 84.5458 102.383 84.455 103.062C84.2128 104.868 84.1153 106.174 84.0547 106.803C83.9706 107.687 83.7049 108.488 83.3281 109.201C82.4805 110.809 81.0777 111.99 79.9576 112.74C78.9418 113.423 78.5684 114.755 79.0864 115.865C81.256 120.51 84.0009 122.051 84.0009 122.051C84.0009 122.051 84.603 122.239 82.4334 117.594C81.9153 116.484 81.6328 115.777 82.6486 115.094C83.7688 114.344 85.1715 113.164 86.0191 111.556C86.3958 110.843 86.6616 110.042 86.7457 109.157C86.8062 108.528 86.9038 107.223 87.146 105.417C87.2368 104.737 87.3478 103.991 87.4858 103.18C87.738 101.69 88.0744 99.991 88.5353 98.151C89.2567 95.2499 90.2766 91.9925 91.7253 88.6192C92.1672 87.5905 93.1165 86.9006 94.2172 86.6962C96.3775 86.2952 99.5738 83.7895 102.33 80.1259C104.925 76.6761 106.425 73.1366 106.413 70.9094C106.407 69.7679 106.902 68.6814 107.825 68.0093C109.411 66.8543 111.116 65.7656 112.953 64.7619C113.343 64.5466 113.74 64.3381 114.141 64.1329C118.191 62.0608 122.473 60.574 126.859 59.6793C127.202 59.6087 127.549 59.5414 127.892 59.4775C133.207 58.5121 138.653 58.4078 144.014 59.1781C144.657 59.2689 145.299 59.3766 145.939 59.4943C148.764 60.0124 151.56 60.7793 154.288 61.7918C155.115 62.0979 155.953 62.4309 156.794 62.7976C160.726 64.4863 164.81 66.8072 168.722 69.986C164.019 65.5659 158.95 62.525 154.103 60.4429Z" fill="white"/>
</g>
<path d="M131.312 153.879C120.509 153.879 107.899 150.935 96.0446 141.029C94.0716 140.577 84.9934 137.968 78.9332 127.261C77.8923 125.422 78.5418 123.069 80.3806 122.017C80.6807 121.846 80.9891 121.687 81.3046 121.542C80.2638 120.472 78.9853 118.828 77.8675 116.434C77.0738 114.736 77.6507 112.667 79.2091 111.623C80.6901 110.631 82.5007 108.967 82.7159 106.679L82.7486 106.318C82.9847 103.667 83.7029 95.5998 87.5043 86.4297C92.3635 74.7077 100.213 66.0101 110.836 60.5785C123.591 54.0568 138.619 53.1811 152.067 58.176C163.742 62.513 179.081 72.7944 185.852 97.1451C185.877 97.2347 185.892 97.3262 185.898 97.4189C185.903 97.4918 186.478 105.013 191.959 108.333C193.777 109.434 194.511 111.723 193.668 113.657C192.728 115.809 191.151 118.362 188.664 119.62C189.38 120.327 190.37 121.191 191.578 121.96C192.649 122.641 193.361 123.75 193.531 125.003C193.7 126.241 193.317 127.484 192.481 128.412C187.687 133.734 178.062 142.74 167.151 143.691C165.412 144.766 156.433 150.047 143.993 152.574C140.233 153.338 135.937 153.879 131.312 153.879ZM134.193 57.6616C126.566 57.6616 118.962 59.4456 112.061 62.9748C91.3209 73.5794 86.4729 94.8321 85.429 106.557L85.3953 106.931C85.081 110.271 82.6723 112.542 80.7069 113.859C80.2412 114.171 80.0688 114.788 80.3055 115.295C82.236 119.428 84.645 120.867 84.6692 120.881C85.1476 121.16 85.4113 121.707 85.326 122.254C85.2408 122.801 84.834 123.243 84.2934 123.363C83.3753 123.567 82.5084 123.9 81.717 124.353C81.16 124.672 80.9617 125.382 81.2752 125.935C87.3102 136.598 96.7946 138.44 96.8896 138.457C97.1209 138.5 97.3408 138.602 97.5202 138.754C107.346 147.058 118.589 151.233 131.057 151.234C135.038 151.234 139.143 150.808 143.369 149.955C156.487 147.307 165.891 141.306 165.985 141.246C166.175 141.123 166.393 141.05 166.619 141.034C176.728 140.31 185.909 131.687 190.481 126.611C190.791 126.267 190.927 125.825 190.865 125.366C190.801 124.9 190.535 124.485 190.133 124.23C187.091 122.294 185.282 119.891 185.206 119.79C184.924 119.411 184.861 118.911 185.041 118.474C185.221 118.037 185.617 117.726 186.085 117.655C188.652 117.269 190.284 114.682 191.201 112.58C191.508 111.877 191.234 111.04 190.564 110.634C184.266 106.819 183.333 98.9644 183.224 97.742C176.74 74.5736 162.198 64.81 151.13 60.6989C145.664 58.6683 139.922 57.6616 134.193 57.6616Z" fill="#000072"/>
<path d="M95.657 140.687C95.3096 140.236 95.0172 139.79 94.7374 139.312C94.4567 138.841 94.2025 138.35 93.9643 137.85C93.7314 137.347 93.5124 136.834 93.3441 136.295C93.1759 135.761 93.0241 135.209 93.0118 134.646C93.1072 134.751 93.1983 134.853 93.2839 134.955L93.5685 135.242C93.7573 135.431 93.9433 135.616 94.1439 135.791C94.5363 136.145 94.9257 136.493 95.3253 136.832L96.5069 137.854C96.8982 138.188 97.2891 138.544 97.6468 138.876L95.657 140.687Z" fill="#000072"/>
<path d="M165.856 141.34L168.529 139.149C169.423 138.41 170.312 137.663 171.197 136.908C172.079 136.149 172.949 135.378 173.812 134.592C174.684 133.814 175.557 133.038 176.554 132.321C176.12 133.467 175.497 134.503 174.806 135.478C174.098 136.439 173.362 137.383 172.585 138.287C171.811 139.195 171.009 140.079 170.178 140.934C169.763 141.363 169.341 141.784 168.906 142.193C168.472 142.607 168.045 143.01 167.574 143.412L165.856 141.34Z" fill="#000072"/>
<path d="M185.382 119.983C185.145 119.75 184.945 119.487 184.749 119.214C184.558 118.938 184.375 118.653 184.208 118.351C184.037 118.053 183.877 117.743 183.743 117.407C183.61 117.071 183.496 116.707 183.447 116.306C183.842 116.379 184.197 116.466 184.533 116.582C184.869 116.696 185.183 116.832 185.488 116.978C185.797 117.12 186.092 117.276 186.379 117.441C186.663 117.609 186.943 117.784 187.188 117.989L185.382 119.983Z" fill="#000072"/>
<path d="M135.487 130.605C134.842 133.696 132.82 137.888 126.654 138.591C123.559 138.944 121.299 137.999 119.654 136.525C116.011 133.262 115.382 127.423 115.382 127.423C123.657 130.511 124.474 121.149 124.474 121.149C125.413 131.16 135.763 127.228 135.763 127.228C135.763 127.228 135.884 128.708 135.487 130.605Z" fill="#000072"/>
<path d="M135.487 130.605C134.842 133.696 132.82 137.888 126.654 138.591C123.559 138.944 121.299 137.999 119.654 136.525C121.581 133.444 126.556 127.631 135.487 130.605Z" fill="#FF459A"/>
<path d="M125.382 140.012C123.028 140.012 120.951 139.303 119.191 137.895C114.826 134.402 114.073 127.846 114.043 127.569C113.993 127.105 114.186 126.648 114.555 126.362C114.923 126.076 115.414 126.001 115.851 126.164C117.785 126.885 119.357 126.88 120.523 126.148C122.768 124.738 123.132 121.065 123.135 121.028C123.199 120.336 123.779 119.805 124.474 119.805C124.475 119.805 124.475 119.805 124.475 119.805C125.17 119.805 125.75 120.332 125.815 121.023C126.035 123.37 126.843 124.994 128.217 125.85C130.937 127.546 135.243 125.986 135.286 125.97C135.681 125.82 136.124 125.864 136.482 126.09C136.839 126.316 137.07 126.696 137.104 127.118C137.432 131.105 135.701 138.914 126.808 139.929C126.322 139.985 125.846 140.012 125.382 140.012ZM117.123 129.285C117.629 131.209 118.708 134.067 120.881 135.8C122.429 137.035 124.267 137.51 126.503 137.256C132.798 136.537 134.128 131.649 134.383 129.008C132.431 129.421 129.307 129.701 126.793 128.134C125.82 127.527 125.034 126.714 124.439 125.701C123.872 126.724 123.078 127.717 121.968 128.418C120.584 129.292 118.962 129.582 117.123 129.285Z" fill="#000072"/>
<path d="M125.712 120.111L125.768 120.642C125.792 120.833 125.824 121.025 125.854 121.216C125.917 121.599 126.005 121.976 126.106 122.342C126.299 123.079 126.596 123.757 126.95 124.349C127.683 125.521 128.73 126.255 130.145 126.475C130.319 126.506 130.496 126.534 130.68 126.544L130.954 126.568L131.256 126.573C131.658 126.577 132.068 126.603 132.462 126.566L133.061 126.539L133.646 126.465L133.94 126.429L134.224 126.369C134.413 126.326 134.609 126.299 134.795 126.249C135.552 126.069 136.224 125.738 136.922 125.428C137.103 125.355 137.262 125.257 137.451 125.182C137.618 125.088 137.812 125.009 137.99 124.909C138.36 124.719 138.744 124.511 139.164 124.249L139.179 124.239C139.229 124.208 139.294 124.224 139.324 124.273C139.333 124.287 139.339 124.303 139.34 124.319C139.392 124.859 139.253 125.375 139.034 125.839C138.93 126.079 138.789 126.29 138.644 126.506C138.488 126.705 138.328 126.916 138.142 127.088C137.413 127.815 136.479 128.264 135.556 128.621C135.324 128.71 135.088 128.777 134.852 128.852L134.496 128.96L134.139 129.039L133.422 129.196L132.703 129.294C132.221 129.37 131.747 129.378 131.268 129.406L130.909 129.424L130.522 129.414C130.265 129.413 130.003 129.389 129.741 129.358C128.691 129.252 127.611 128.889 126.658 128.289C125.698 127.693 124.926 126.835 124.373 125.918C123.814 124.999 123.474 124.011 123.256 123.033C123.149 122.542 123.082 122.049 123.038 121.557C123.014 121.311 123.007 121.063 123.002 120.814C122.998 120.556 123 120.336 123.022 120.023C123.074 119.284 123.716 118.726 124.456 118.778C125.116 118.824 125.631 119.34 125.698 119.976L125.712 120.111Z" fill="#000072"/>
<path d="M125.715 120.404C125.743 120.68 125.75 120.863 125.753 121.085C125.756 121.298 125.755 121.509 125.742 121.719C125.718 122.139 125.675 122.56 125.599 122.98C125.442 123.818 125.187 124.667 124.751 125.469C124.325 126.27 123.718 127.033 122.943 127.598C122.179 128.176 121.28 128.543 120.398 128.713C119.955 128.8 119.517 128.84 119.086 128.857C118.67 128.855 118.265 128.845 117.855 128.83C117.025 128.73 116.185 128.627 115.358 128.267C115.152 128.2 114.951 128.08 114.752 127.978C114.652 127.923 114.552 127.875 114.455 127.815L114.172 127.614C114.08 127.545 113.987 127.478 113.898 127.405C113.812 127.326 113.733 127.238 113.652 127.155C113.483 126.997 113.352 126.798 113.225 126.605C113.093 126.416 113.014 126.19 112.923 125.985C112.86 125.762 112.793 125.549 112.777 125.323C112.731 124.88 112.778 124.433 112.978 124.033C112.998 123.993 113.046 123.977 113.085 123.997C113.098 124.003 113.108 124.012 113.115 124.022L113.122 124.033C113.359 124.371 113.589 124.654 113.827 124.892C113.933 125.017 114.068 125.117 114.173 125.223L114.354 125.364C114.407 125.413 114.465 125.458 114.53 125.494C115.002 125.818 115.486 126.078 116.066 126.227C116.634 126.389 117.289 126.4 117.929 126.403L118.917 126.335C119.223 126.293 119.521 126.239 119.799 126.155C120.35 125.981 120.847 125.756 121.244 125.41C121.644 125.072 121.975 124.647 122.237 124.141C122.491 123.633 122.694 123.058 122.816 122.443C122.88 122.137 122.934 121.823 122.967 121.506C122.983 121.347 123 121.188 123.01 121.031L123.032 120.603L123.038 120.472C123.075 119.731 123.705 119.16 124.446 119.197C125.119 119.231 125.651 119.754 125.715 120.404Z" fill="#000072"/>
<path d="M114.526 111.24C114.801 106.593 112.155 102.656 108.616 102.447C105.077 102.238 101.986 105.836 101.711 110.483C101.437 115.13 104.083 119.067 107.621 119.276C111.16 119.485 114.252 115.888 114.526 111.24Z" fill="#000072"/>
<path d="M111.65 109.515C111.73 108.158 110.957 107.008 109.923 106.947C108.89 106.886 107.987 107.937 107.907 109.294C107.826 110.651 108.599 111.801 109.633 111.862C110.666 111.924 111.569 110.873 111.65 109.515Z" fill="white"/>
<path d="M144.596 119.299C148.135 119.09 150.781 115.153 150.507 110.506C150.232 105.859 147.14 102.261 143.602 102.47C140.063 102.679 137.417 106.616 137.691 111.263C137.966 115.911 141.057 119.508 144.596 119.299Z" fill="#000072"/>
<path d="M142.586 111.884C143.619 111.823 144.392 110.673 144.312 109.316C144.232 107.959 143.329 106.908 142.295 106.969C141.261 107.03 140.489 108.18 140.569 109.537C140.649 110.895 141.552 111.945 142.586 111.884Z" fill="white"/>
<path d="M125.215 122.554C129.767 122.69 132.994 117.854 131.494 116.417C130.894 115.843 129.807 115.437 128.719 115.158C126.577 114.608 124.33 114.541 122.158 114.962C121.056 115.176 119.947 115.516 119.313 116.053C117.73 117.398 120.663 122.418 125.215 122.554Z" fill="#000072"/>
<g opacity="0.3">
<path d="M125.638 116.72C125.653 117.195 124.665 117.61 123.432 117.649C122.198 117.687 121.187 117.334 121.172 116.86C121.157 116.385 122.145 115.97 123.378 115.931C124.611 115.893 125.623 116.246 125.638 116.72Z" fill="white"/>
</g>
<path d="M50.0898 65.5822C52.6607 62.2069 54.1899 57.9952 54.1899 53.4247C54.1899 42.3314 45.1969 33.3385 34.1037 33.3385C23.0104 33.3385 14.0175 42.3314 14.0175 53.4247C14.0175 64.5181 23.0104 73.5109 34.1037 73.5109C37.1893 73.5109 40.1114 72.8133 42.7237 71.5701L51.7575 74.5932L50.0898 65.5822Z" fill="white"/>
<g opacity="0.5">
<path d="M34.1037 37.6425C44.4664 37.6425 52.9938 45.4905 54.0724 55.5668C54.1472 54.8626 54.1899 54.1489 54.1899 53.4248C54.1899 42.3315 45.197 33.3387 34.1037 33.3387C23.0104 33.3387 14.0175 42.3316 14.0175 53.4248C14.0175 54.152 14.0583 54.8696 14.1336 55.5768C15.2077 45.4957 23.7376 37.6425 34.1037 37.6425Z" fill="white"/>
</g>
<path d="M51.7572 75.9459C51.6133 75.9459 51.4685 75.9227 51.3282 75.876L42.8023 73.0229C40.0577 74.2446 37.1339 74.8635 34.1036 74.8635C22.2824 74.8635 12.6649 65.2459 12.6649 53.4246C12.6649 41.6034 22.2824 31.9861 34.1036 31.9861C45.9249 31.9861 55.5424 41.6033 55.5424 53.4246C55.5424 57.9524 54.1558 62.2573 51.5267 65.9139L53.0874 74.3473C53.1744 74.818 53.0061 75.2999 52.6444 75.6142C52.3949 75.8312 52.0786 75.9459 51.7572 75.9459ZM42.7236 70.2177C42.8683 70.2177 43.0132 70.2409 43.1528 70.2876L50.0098 72.5824L48.7597 65.8283C48.6904 65.4534 48.7825 65.0665 49.0138 64.763C51.5151 61.4786 52.8372 57.5582 52.8372 53.4247C52.8372 43.0951 44.4334 34.6914 34.1037 34.6914C23.7741 34.6914 15.3702 43.0951 15.3702 53.4247C15.3702 63.7544 23.7741 72.1584 34.1037 72.1584C36.9145 72.1584 39.6191 71.5499 42.1425 70.349C42.3257 70.2617 42.5243 70.2177 42.7236 70.2177Z" fill="#000072"/>
<g opacity="0.3">
<path d="M50.2216 65.4019C44.2734 69.4692 36.5256 70.7222 29.2297 68.09C21.1385 65.1708 15.6697 58.2197 14.2571 50.3199C14.1 51.332 14.0175 52.3686 14.0175 53.4248C14.0175 64.5181 23.0104 73.511 34.1037 73.511C37.1893 73.511 40.1114 72.8133 42.7236 71.5701L51.7574 74.5932L50.0898 65.5822C50.1349 65.523 50.1772 65.4616 50.2216 65.4019Z" fill="#000072"/>
</g>
<path d="M41.3589 47.606C39.3971 45.6443 36.2165 45.9958 34.2547 47.9575L33.9494 48.2629L33.6441 47.9575C31.6823 45.9958 28.5017 45.6443 26.5399 47.606C24.5781 49.5678 24.5781 52.7485 26.5399 54.7102L26.8452 55.0156L33.013 61.1833C33.5301 61.7005 34.3686 61.7005 34.8859 61.1833L41.0536 55.0156L41.3589 54.7102C43.3207 52.7485 43.3207 49.5678 41.3589 47.606Z" fill="#FF0068"/>
</svg>
