<svg width="267" height="181" viewBox="0 0 267 181" fill="none" xmlns="http://www.w3.org/2000/svg">
<path d="M186.886 39.1584C181.636 27.6983 176.57 12.0332 175.756 0L169.632 13.0387C160.487 8.34999 149.636 5.50917 137.303 4.59005C92.907 1.28262 72.7164 28.1378 71.8781 29.2825L83.0745 37.4752C83.2344 37.2571 99.4707 15.6822 136.272 18.4255C144.46 19.036 151.793 20.5998 158.18 23.0864L147.742 27.9687C159.775 28.8014 175.431 33.8925 186.886 39.1584Z" fill="#B4EFED"/>
<path d="M71.8787 53.5131C77.1289 64.9736 82.1949 80.6387 83.009 92.6715L89.1328 79.6332C98.2773 84.3215 109.129 87.1623 121.462 88.0815C165.857 91.3885 186.048 64.5341 186.887 63.389L175.69 55.1963C175.53 55.4144 159.294 76.9893 122.493 74.246C114.304 73.6355 106.972 72.0717 100.585 69.5855L111.022 64.7032C98.9902 63.8701 83.3332 58.779 71.8787 53.5131Z" fill="#B4EFED"/>
<path d="M24.136 90.0973C29.5035 87.0722 36.3068 88.9713 39.332 94.3387C39.332 94.3387 39.3653 94.3981 39.4299 94.5127C39.5163 94.6577 39.645 94.8729 39.8127 95.1533C40.1635 95.7308 40.6914 96.5876 41.3887 97.6851C42.089 98.7808 42.9532 100.113 43.9736 101.626C44.9951 103.139 46.1649 104.84 47.4824 106.658C48.1374 107.571 48.8262 108.517 49.5569 109.477C49.92 109.96 50.2902 110.45 50.6656 110.949C51.0484 111.439 51.4367 111.936 51.8306 112.44C53.4044 114.462 55.1232 116.518 56.9329 118.601C57.3839 119.125 57.8557 119.621 58.3223 120.139C58.7875 120.642 59.2704 121.195 59.7296 121.671C60.1873 122.145 60.648 122.622 61.1105 123.102L61.8071 123.829L62.6546 124.627C63.2217 125.159 63.7903 125.694 64.3604 126.23L64.4676 126.33L64.5214 126.381C64.6394 126.478 64.4361 126.313 64.4053 126.288L64.4046 126.287C64.4001 126.283 64.4009 126.284 64.4053 126.288L64.4264 126.307L64.6041 126.46L64.9587 126.769L65.669 127.394C66.156 127.803 66.6783 128.188 67.1827 128.594C67.7031 128.987 68.2546 129.355 68.7902 129.742C73.1982 132.739 78.4588 135.078 83.6346 136.817C88.8214 138.563 93.9363 139.739 98.3691 140.545C102.808 141.345 106.573 141.776 109.193 142.018C109.706 142.066 110.174 142.104 110.597 142.137C110.363 145.853 109.939 149.585 109.468 153.323C109.264 153.328 109.054 153.333 108.836 153.338C105.94 153.4 101.823 153.396 96.8654 153.074C91.9085 152.742 86.1045 152.098 79.8668 150.765C73.6396 149.422 66.9405 147.399 60.4388 144.023C59.6331 143.58 58.8201 143.157 58.0208 142.689C57.227 142.201 56.4262 141.732 55.6425 141.218L54.4771 140.42L53.8962 140.02L53.6058 139.818L53.5695 139.793C53.5869 139.81 53.2794 139.558 53.3959 139.654L53.3369 139.61L53.2197 139.523C52.5925 139.054 51.9675 138.587 51.3443 138.121L50.4122 137.426C50.0729 137.148 49.7338 136.873 49.3959 136.598C48.7194 136.042 48.0466 135.491 47.3774 134.942C46.7131 134.392 46.1349 133.867 45.5151 133.331C44.9105 132.797 44.2925 132.275 43.7113 131.74C41.3779 129.604 39.1736 127.498 37.1662 125.451C36.6636 124.938 36.167 124.433 35.6785 123.935C35.2 123.432 34.7293 122.935 34.2657 122.446C33.3339 121.472 32.4556 120.516 31.6199 119.593C29.9382 117.752 28.4419 116.031 27.1263 114.491C25.8118 112.952 24.6865 111.586 23.7644 110.449C22.8449 109.311 22.1246 108.394 21.6309 107.757C21.3798 107.429 21.1873 107.177 21.0571 107.007C20.9076 106.806 20.8304 106.702 20.8304 106.702L20.609 106.404C20.3527 106.052 20.1135 105.682 19.8946 105.294C16.8698 99.9258 18.7685 93.1225 24.136 90.0973Z" fill="#037A06"/>
<path d="M62.538 125.806C62.538 125.806 62.8161 126.002 63.2178 126.315C63.6195 126.627 64.1473 127.052 64.6614 127.494C65.2093 127.883 65.7423 128.29 66.1399 128.602C66.5368 128.915 66.7946 129.137 66.7946 129.137L66.8005 129.142C66.8372 129.174 66.8413 129.229 66.8098 129.266C66.7816 129.298 66.7352 129.305 66.6996 129.284C66.6996 129.284 66.4058 129.112 65.9756 128.834C65.5461 128.555 64.9763 128.175 64.4211 127.775C63.9051 127.336 63.4033 126.88 63.0324 126.531C62.6615 126.183 62.4248 125.939 62.4248 125.939C62.3911 125.903 62.3922 125.848 62.4267 125.814C62.4571 125.785 62.5038 125.783 62.538 125.806Z" fill="white"/>
<path d="M133.511 150.353C117.054 152.568 103.298 144.253 91.551 133.931C91.5766 147.941 91.7531 166.252 91.7531 166.841C91.7531 167.775 164.092 167.304 164.554 166.841C164.852 166.544 165.012 146.731 164.932 132.455C161.733 135.352 158.359 138.115 154.652 140.71C147.605 145.531 141.3 149.24 133.511 150.353Z" fill="#6B1B0B"/>
<path d="M91.7531 118.086C91.5766 118.263 91.535 125.277 91.551 133.931C103.298 144.253 117.054 152.568 133.511 150.353C141.3 149.24 147.605 145.531 154.653 140.709C158.36 138.114 161.733 135.352 164.932 132.455C164.887 124.522 164.767 118.299 164.555 118.086C163.96 117.492 92.2157 117.624 91.7531 118.086Z" fill="#9B3D27"/>
<path d="M92.8945 118.924C92.8945 118.924 95.2035 118.868 98.667 118.784C99.5331 118.768 100.471 118.751 101.463 118.732C102.456 118.728 103.503 118.723 104.586 118.719C106.751 118.708 109.062 118.697 111.372 118.686C113.681 118.676 115.99 118.665 118.154 118.655C119.236 118.641 120.284 118.665 121.275 118.621C122.266 118.588 123.203 118.556 124.068 118.527C127.53 118.431 129.838 118.367 129.838 118.367H129.842C129.89 118.365 129.93 118.404 129.932 118.452C129.933 118.5 129.896 118.539 129.848 118.542C129.848 118.542 127.54 118.648 124.077 118.807C123.211 118.842 122.273 118.88 121.281 118.921C120.288 118.972 119.242 118.956 118.159 118.977C115.993 119.002 113.683 119.029 111.372 119.056C109.063 119.051 106.754 119.046 104.589 119.042C103.507 119.039 102.461 119.036 101.468 119.033C100.476 119.045 99.5376 119.055 98.6715 119.065C95.2068 119.085 92.8971 119.098 92.8971 119.098C92.8489 119.099 92.8092 119.06 92.8085 119.012C92.8088 118.964 92.847 118.925 92.8945 118.924Z" fill="white"/>
<path d="M94.9848 121.518C94.9848 121.518 95.75 121.935 97.0898 122.664C97.7596 123.029 98.5727 123.472 99.5055 123.98C100.44 124.485 101.491 125.061 102.628 125.707C104.907 126.989 107.565 128.485 110.414 130.088C113.264 131.687 116.305 133.391 119.345 135.095C120.87 135.937 122.396 136.78 123.896 137.609C125.392 138.449 126.889 139.23 128.33 139.997C129.777 140.755 131.157 141.524 132.499 142.187C133.837 142.859 135.101 143.495 136.269 144.082C136.852 144.375 137.412 144.655 137.944 144.923C138.482 145.178 138.993 145.419 139.472 145.646C140.432 146.1 141.268 146.497 141.957 146.823C143.335 147.475 144.122 147.848 144.122 147.848L144.125 147.85C144.176 147.873 144.198 147.935 144.174 147.986C144.15 148.037 144.09 148.058 144.039 148.035C144.039 148.035 143.245 147.675 141.856 147.044C141.161 146.728 140.317 146.345 139.35 145.905C138.866 145.686 138.351 145.452 137.808 145.205C137.27 144.949 136.711 144.664 136.124 144.376C134.953 143.795 133.683 143.165 132.34 142.5C130.992 141.842 129.607 141.081 128.155 140.33C126.708 139.569 125.205 138.796 123.704 137.964C122.197 137.142 120.666 136.307 119.135 135.473C107.01 128.584 94.8854 121.696 94.8854 121.696C94.8361 121.668 94.8187 121.606 94.8465 121.556C94.8743 121.509 94.9359 121.491 94.9848 121.518Z" fill="black"/>
<path d="M132.894 135.434C132.894 135.434 133.25 135.167 133.874 134.7C134.186 134.466 134.564 134.183 134.998 133.857C135.427 133.525 135.931 133.176 136.486 132.801C137.038 132.423 137.637 132.014 138.271 131.581C138.909 131.156 139.591 130.725 140.297 130.276C141 129.824 141.731 129.364 142.484 128.915C143.235 128.461 143.998 128 144.76 127.539C146.303 126.648 147.842 125.748 149.299 124.933C150.751 124.109 152.12 123.364 153.288 122.717C155.635 121.441 157.199 120.591 157.199 120.591C157.249 120.563 157.311 120.582 157.338 120.631C157.364 120.68 157.347 120.741 157.299 120.769C157.299 120.769 155.761 121.664 153.452 123.007C152.295 123.674 150.945 124.451 149.498 125.283C148.047 126.107 146.516 127.013 144.98 127.912C144.217 128.368 143.454 128.824 142.702 129.274C141.947 129.718 141.216 130.172 140.512 130.619C139.805 131.06 139.123 131.488 138.475 131.893C137.837 132.312 137.235 132.709 136.678 133.075C136.121 133.44 135.608 133.773 135.168 134.091C134.724 134.402 134.336 134.673 134.017 134.897C133.379 135.344 133.014 135.599 133.014 135.599C132.968 135.631 132.904 135.62 132.872 135.574C132.84 135.529 132.85 135.467 132.894 135.434Z" fill="black"/>
<path d="M18.6022 72.3518L20.1946 87.9783C29.2363 90.5618 35.0304 86.7606 35.0304 86.7606C35.0304 86.7606 33.7147 80.7975 33.8438 77.8268C33.9733 74.8558 36.6857 74.8061 37.5897 74.4144C37.9061 74.2772 39.2517 74.1893 40.8941 74.1047C32.3505 72.5999 24.3655 68.2647 16.705 63.7566C18.1864 66.5433 18.6022 72.3518 18.6022 72.3518Z" fill="#E85F3A"/>
<path d="M48.3101 69.6393C48.0519 68.4769 48.0519 60.2103 48.0519 59.8227L44.0475 45.2265C43.789 44.7099 44.5642 42.6431 44.5642 41.9977C44.5642 41.352 42.3684 32.4393 42.2275 30.7754C42.0865 29.1118 38.1059 23.3976 33.5852 23.139C29.0645 22.8809 16.0183 24.1724 8.65572 37.6058C1.29309 51.0391 14.2101 60.727 16.1478 62.9224C16.3488 63.1502 16.5335 63.4343 16.7045 63.7566C24.365 68.2651 32.35 72.6003 40.8937 74.1047C43.944 73.9482 48.0196 73.8046 48.4391 73.3848C49.0849 72.739 48.5682 70.8021 48.3101 69.6393Z" fill="#FC7857"/>
<path d="M44.1813 58.47C44.1316 59.881 48.0521 59.8224 48.0521 59.8224C48.0521 59.4348 52.1856 56.9808 52.1856 56.3209C52.1856 55.6611 44.3063 45.7432 44.0481 45.2265C44.0481 45.2265 45.2565 53.0929 45.7747 54.6036C46.2925 56.1143 44.2758 55.7872 44.1813 58.47Z" fill="#E85F3A"/>
<path d="M37.4778 57.5227C37.4778 60.5641 35.0127 63.0296 31.9704 63.0296C28.929 63.0296 26.4635 60.5641 26.4635 57.5227C26.4635 54.4808 28.929 52.0154 31.9704 52.0154C35.0123 52.0154 37.4778 54.4808 37.4778 57.5227Z" fill="#E85F3A"/>
<path d="M0.00170652 44.7103C0.557706 40.3517 6.20153 37.6058 7.10581 35.6681C8.0101 33.7309 10.2059 31.018 10.0768 29.2098C9.94775 27.4016 13.0475 19.7808 14.4684 19.3932C15.8894 19.0056 26.9975 21.8476 28.8061 21.3309C30.6143 20.8138 32.4229 20.6851 32.9396 18.3602C33.4563 16.035 33.714 13.9686 34.6183 13.8392C35.5226 13.7101 41.5937 16.4226 42.6267 19.2645C43.6601 22.1065 42.6267 24.1724 42.6267 24.1724C42.6267 24.1724 44.0477 21.2014 44.8225 21.0727C45.5977 20.9436 45.4683 23.6561 45.4683 23.6561C45.4683 23.6561 48.3099 22.4933 48.6975 21.0727C49.0851 19.6521 50.1184 17.3272 50.7642 17.8435C51.4103 18.3602 54.898 25.2058 53.0895 27.6601C51.2809 30.1141 45.5213 33.3718 43.4542 32.7261C41.3875 32.0803 38.3319 29.4709 37.4276 29.8585C36.5233 30.2461 29.039 34.5498 28.1348 34.4208C27.2305 34.2917 23.3808 32.3444 23.1222 33.3778C22.8637 34.4111 27.9015 38.2519 28.1596 40.3183C28.4181 42.3846 28.0305 60.2104 27.9015 62.4058C27.772 64.6012 18.9888 75.7097 18.2136 74.2891C17.4387 72.8685 16.5344 66.9265 14.8553 64.9888C13.1766 63.0519 -0.173365 46.0819 0.00170652 44.7103Z" fill="#6B1B0B"/>
<path d="M34.0623 50.6284L37.6831 49.061C37.6831 49.061 37.8997 52.6814 38.8723 52.6273C39.8452 52.5735 39.791 47.9801 39.791 47.9801C39.791 47.9801 41.1423 47.818 41.4126 47.9801C41.6827 48.1422 42.1051 48.1507 42.1051 48.1507C42.1051 48.1507 41.196 47.1697 41.196 46.8451C41.196 46.5209 41.1422 45.5477 41.1422 45.5477C41.1422 45.5477 38.8185 46.0881 36.6564 47.9797C34.4947 49.8714 34.0623 50.6284 34.0623 50.6284Z" fill="#6B1B0B"/>
<path d="M31.9708 46.1308C31.9708 46.1308 37.6543 42.7725 39.0103 42.7076C40.3667 42.6431 42.8853 43.0949 42.8853 43.0949C42.8853 43.0949 41.1416 40.1888 39.2685 40.3178C37.3961 40.4477 31.9708 46.1308 31.9708 46.1308Z" fill="#6B1B0B"/>
<path d="M28.5185 54.078C28.5185 54.078 28.3546 50.5228 27.194 49.1667C26.033 47.8103 21.6414 45.4209 20.6726 52.2665C19.7038 59.1124 27.1673 61.6398 27.9062 61.5716C28.6446 61.5033 28.5185 54.078 28.5185 54.078Z" fill="#E85F3A"/>
<path d="M23.5493 48.609L23.9681 48.7265C24.1072 48.774 24.2481 48.8363 24.3887 48.8916C24.5282 48.9509 24.6561 49.0274 24.7908 49.0952C24.9235 49.1661 25.0434 49.2588 25.1695 49.3415C25.2922 49.4287 25.4035 49.5314 25.5211 49.6268C25.6331 49.7276 25.7359 49.8385 25.8434 49.9446C25.9436 50.0574 26.0378 50.1753 26.135 50.2911C26.2229 50.4135 26.3089 50.5373 26.3916 50.6631L26.6142 51.0551L26.8078 51.4605C26.9257 51.7354 27.0285 52.0154 27.1175 52.2992C27.2039 52.5837 27.2777 52.8711 27.3345 53.1616C27.3901 53.452 27.4357 53.7435 27.4736 54.0354C27.4884 54.1489 27.4161 54.2539 27.3089 54.2828L27.2959 54.2862L27.0404 54.3563C26.9524 54.3737 26.8779 54.4208 26.7959 54.4512C26.7125 54.4805 26.6401 54.528 26.5671 54.5736C26.4899 54.6144 26.422 54.666 26.3594 54.7242C26.2904 54.7761 26.2306 54.8355 26.178 54.9008C26.1164 54.9605 26.0719 55.0302 26.0296 55.1022C25.9781 55.17 25.9562 55.2491 25.9235 55.3247C25.8876 55.4004 25.889 55.4827 25.8672 55.5621C25.8672 55.6415 25.8608 55.7238 25.8735 55.8028C25.8961 55.8792 25.8979 55.9638 25.9417 56.0343L25.9925 56.1455C26.0133 56.1808 26.0422 56.2116 26.0652 56.2461C26.1082 56.318 26.1702 56.3763 26.2358 56.4323C26.2944 56.4957 26.3705 56.5402 26.4465 56.5858C26.5185 56.6374 26.5997 56.6756 26.6854 56.7067C26.7696 56.7401 26.8508 56.7809 26.9421 56.7995L27.2106 56.8711L27.2247 56.8748C27.284 56.8903 27.3189 56.9512 27.3033 57.0105C27.2885 57.0654 27.234 57.0999 27.1791 57.0914L26.8816 57.0443C26.7807 57.035 26.685 56.9961 26.5875 56.9656C26.4888 56.9374 26.3927 56.9007 26.3015 56.8473C26.208 56.8002 26.1142 56.7531 26.0329 56.6808C25.9465 56.6173 25.8634 56.5491 25.7971 56.4597C25.7195 56.3807 25.6643 56.285 25.6164 56.1834C25.5563 56.0877 25.5404 55.9746 25.5077 55.867C25.4851 55.7579 25.4859 55.6437 25.4833 55.5324C25.5029 55.4238 25.5037 55.3077 25.5437 55.2049C25.5804 55.1011 25.6105 54.9924 25.6706 54.9004C25.7218 54.8028 25.7781 54.709 25.8512 54.6285L25.9543 54.5024L26.0752 54.3956C26.1542 54.3214 26.2388 54.2557 26.3312 54.2031C26.4209 54.1452 26.5103 54.087 26.609 54.0491C26.7062 54.0102 26.7993 53.9542 26.9009 53.9308L27.2024 53.844L27.0248 54.0948C26.984 53.8129 26.9358 53.5332 26.8779 53.2554C26.8152 52.9791 26.7503 52.7042 26.6731 52.4331C26.593 52.1627 26.5003 51.8978 26.3938 51.6382L26.2192 51.2569L26.0189 50.8905L25.7937 50.5399L25.5415 50.2091C25.4473 50.1082 25.3583 50.001 25.26 49.9035C25.1561 49.8118 25.0586 49.7121 24.9495 49.6264C24.8368 49.5455 24.7307 49.455 24.6138 49.379C24.4951 49.3078 24.3794 49.2251 24.257 49.1616C24.1324 49.1019 24.013 49.0355 23.8824 48.9788L23.4777 48.8193C23.4206 48.7966 23.3924 48.7321 23.415 48.6746C23.4366 48.6216 23.4952 48.5938 23.5493 48.609Z" fill="black"/>
<path d="M36.0584 63.2406C36.0584 63.2406 36.6886 63.3886 37.634 63.6112C37.8699 63.6661 38.1255 63.7262 38.3959 63.7892C38.6659 63.8549 38.9538 63.9064 39.2483 63.9743C39.5439 64.0374 39.8484 64.1104 40.1614 64.1605C40.4734 64.2161 40.7905 64.2729 41.1076 64.3293C41.4263 64.373 41.7449 64.4172 42.0583 64.4602C42.3713 64.5121 42.6822 64.5255 42.9826 64.5489C43.283 64.5629 43.5731 64.6104 43.8491 64.6049C44.125 64.6071 44.3861 64.6097 44.6269 64.6119C44.8683 64.6201 45.089 64.6097 45.2838 64.593C45.4796 64.58 45.6498 64.5689 45.7904 64.5596C46.0719 64.5411 46.2325 64.5307 46.2325 64.5307L46.2396 64.5303C46.2793 64.5277 46.3138 64.5578 46.316 64.5974C46.3186 64.6356 46.2904 64.6687 46.2533 64.6738C46.2533 64.6738 46.092 64.6942 45.8093 64.7299C45.6676 64.7477 45.4959 64.7695 45.2986 64.7944C45.1996 64.807 45.0946 64.82 44.9841 64.8341C44.8732 64.8441 44.7556 64.8419 44.6335 64.8467C44.3887 64.853 44.1239 64.8597 43.8435 64.8667C43.5627 64.8808 43.2682 64.8471 42.9629 64.833C42.6577 64.8126 42.3413 64.8022 42.0238 64.7536C41.7056 64.7135 41.3821 64.6727 41.0587 64.6316C40.739 64.5711 40.4192 64.5106 40.1043 64.4513C39.7887 64.3968 39.483 64.3204 39.1859 64.2529C38.5903 64.1234 38.0443 63.9658 37.574 63.8397C37.1025 63.7165 36.7194 63.5871 36.4468 63.5092C36.1752 63.4272 36.0202 63.3805 36.0202 63.3805C35.982 63.369 35.9601 63.3285 35.972 63.2907C35.9835 63.2532 36.0217 63.2321 36.0584 63.2406Z" fill="black"/>
<path d="M35.8204 46.5355C35.8204 46.5355 35.9755 46.3671 36.2214 46.1297C36.4662 45.8909 36.8037 45.586 37.1479 45.2881C37.3393 45.1591 37.5307 45.0304 37.7099 44.9094C37.8894 44.7889 38.0633 44.6854 38.2084 44.5927C38.5025 44.412 38.7039 44.303 38.7039 44.303C38.7388 44.2841 38.7825 44.2971 38.8018 44.3323C38.8182 44.3623 38.8107 44.3991 38.7859 44.421L38.7799 44.4261C38.7799 44.4261 38.6078 44.5771 38.3415 44.7859C38.2065 44.8879 38.0533 45.0118 37.8827 45.135C37.7117 45.2577 37.5296 45.3887 37.3475 45.5196C37.1724 45.665 36.9977 45.81 36.8334 45.9461C36.6706 46.0838 36.5092 46.2017 36.3757 46.3082C36.1045 46.5162 35.9146 46.6449 35.9146 46.6449C35.8816 46.6676 35.8364 46.659 35.8138 46.626C35.7945 46.5975 35.7982 46.56 35.8204 46.5355Z" fill="black"/>
<path d="M12.7663 34.417C12.7663 34.417 13.2214 34.3536 13.9058 34.278C14.5901 34.2001 15.504 34.1173 16.4183 34.038C16.8779 34.0209 17.3378 34.0038 17.7688 33.9879C18.1998 33.9775 18.6022 33.9679 18.9468 33.9597C19.6364 33.9482 20.0959 33.953 20.0959 33.953C20.1356 33.9534 20.1679 33.986 20.1671 34.0261C20.1668 34.0636 20.1382 34.0936 20.1022 34.0973L20.0989 34.0977C20.0989 34.0977 19.6415 34.1437 18.9561 34.1941C18.6134 34.2168 18.2135 34.2431 17.7851 34.2716C17.3567 34.2943 16.8994 34.3184 16.4424 34.3425C15.5274 34.4122 14.612 34.4794 13.9243 34.5131C13.2366 34.5498 12.7774 34.5606 12.7774 34.5606C12.7374 34.5617 12.7044 34.5298 12.7033 34.4901C12.7029 34.4534 12.7303 34.4219 12.7663 34.417Z" fill="black"/>
<path d="M14.7041 29.1434C14.7041 29.1434 14.7765 29.376 14.8651 29.7287C14.9564 30.0807 15.0569 30.5547 15.1544 31.0288C15.1971 31.2673 15.2401 31.5054 15.2802 31.7287C15.3202 31.9523 15.3466 32.1627 15.3747 32.3422C15.4252 32.7023 15.4463 32.9449 15.4463 32.9449C15.45 32.9846 15.4204 33.0202 15.3803 33.0235C15.3454 33.0265 15.3143 33.0046 15.3046 32.9724C15.3046 32.9724 15.2331 32.7398 15.1444 32.3871C15.1029 32.2101 15.0483 32.005 15.0012 31.7828C14.9545 31.5607 14.9044 31.3237 14.8544 31.0866C14.7664 30.6104 14.6815 30.1338 14.6337 29.7732C14.5832 29.4131 14.5628 29.1705 14.5628 29.1705C14.5595 29.1308 14.5892 29.0952 14.6288 29.0922C14.6637 29.0896 14.6945 29.1115 14.7041 29.1434Z" fill="black"/>
<path d="M18.5065 30.1771C18.5065 30.1771 18.5329 30.3222 18.5521 30.5395C18.5744 30.7569 18.5822 31.0466 18.587 31.3362C18.5833 31.4813 18.5796 31.6259 18.5763 31.7617C18.5725 31.8974 18.5581 32.0243 18.5514 32.133C18.5317 32.3503 18.5062 32.4953 18.5062 32.4953C18.4991 32.535 18.4609 32.5617 18.4212 32.5547C18.3901 32.5491 18.3671 32.5246 18.3615 32.4953C18.3615 32.4953 18.3359 32.3503 18.3162 32.133C18.3096 32.0243 18.2951 31.8974 18.2914 31.7617C18.2881 31.6259 18.2843 31.4809 18.2806 31.3362C18.2855 31.0466 18.2932 30.7565 18.3155 30.5395C18.3348 30.3222 18.3611 30.1771 18.3611 30.1771C18.3685 30.1375 18.4067 30.1107 18.4464 30.1182C18.4783 30.1237 18.5013 30.1482 18.5065 30.1771Z" fill="black"/>
<path d="M10.41 36.4481C10.41 36.4481 10.2865 36.572 10.0895 36.7415C9.88555 36.9073 9.64371 37.141 9.38667 37.361C9.14149 37.5965 8.88223 37.819 8.70196 38.0023C8.51651 38.1799 8.38186 38.2908 8.38186 38.2908L8.37816 38.2942C8.34737 38.3198 8.30138 38.3153 8.27578 38.2845C8.25501 38.2593 8.2539 38.2241 8.27133 38.1981C8.27133 38.1981 8.36777 38.052 8.52838 37.8439C8.61072 37.7419 8.70048 37.6158 8.8188 37.5019C8.93453 37.3847 9.05767 37.2601 9.18081 37.1351C9.31768 37.0234 9.45455 36.9118 9.58251 36.8072C9.70862 36.6978 9.8403 36.6232 9.9486 36.552C10.1686 36.4136 10.3232 36.332 10.3232 36.332C10.3588 36.3131 10.403 36.3268 10.4219 36.3628C10.4382 36.3914 10.4319 36.4259 10.41 36.4481Z" fill="black"/>
<path d="M9.54193 34.1855C9.54193 34.1855 9.63169 34.1699 9.7641 34.1662C9.89652 34.1599 10.0708 34.174 10.2444 34.1892C10.3286 34.1937 10.4125 34.1981 10.4915 34.2026C10.5701 34.207 10.6439 34.2226 10.7077 34.23C10.8346 34.2515 10.9217 34.2782 10.9217 34.2782L10.9291 34.2805C10.9681 34.2927 10.9903 34.3339 10.9781 34.3732C10.9703 34.398 10.9507 34.4162 10.9273 34.4225C10.9273 34.4225 10.8398 34.447 10.7051 34.4648C10.638 34.4707 10.559 34.4841 10.474 34.4867C10.3895 34.4885 10.2986 34.4908 10.2085 34.493C10.0352 34.4681 9.86314 34.4388 9.73592 34.401C9.60832 34.3658 9.52487 34.3294 9.52487 34.3294C9.48666 34.3127 9.46923 34.2682 9.48629 34.23C9.49631 34.2055 9.51782 34.19 9.54193 34.1855Z" fill="black"/>
<path d="M15.2881 20.0753C15.2881 20.0753 15.4124 20.0772 15.6301 20.0805C15.7388 20.0835 15.8708 20.0868 16.0221 20.0909C16.1735 20.0916 16.3441 20.0983 16.5321 20.1258C16.7202 20.1476 16.9238 20.171 17.139 20.1959C17.3563 20.2159 17.5759 20.2671 17.8073 20.3097C18.2714 20.3902 18.7543 20.5208 19.2406 20.6387C19.7183 20.7845 20.1986 20.9229 20.6404 21.0727C21.0851 21.2166 21.492 21.3702 21.8433 21.4948C22.5435 21.75 23.005 21.9343 23.005 21.9343C23.0502 21.9518 23.0725 22.0026 23.055 22.0478C23.0391 22.0894 22.9938 22.1113 22.9515 22.1009C22.9515 22.1009 22.4694 21.9755 21.7542 21.7652C21.3978 21.6587 20.982 21.5345 20.5365 21.4017C20.094 21.26 19.617 21.1317 19.1423 20.9963C18.9038 20.9336 18.6656 20.8709 18.4312 20.809C18.1975 20.7418 17.9639 20.6977 17.7384 20.6484C17.5125 20.6057 17.2959 20.5416 17.0889 20.5108C16.8815 20.4752 16.6861 20.4414 16.5051 20.4106C16.1453 20.342 15.8289 20.3246 15.6152 20.2938C15.3994 20.2663 15.2762 20.2504 15.2762 20.2504C15.2284 20.2441 15.1943 20.2003 15.2002 20.1525C15.2054 20.1072 15.244 20.0746 15.2881 20.0753Z" fill="white"/>
<path d="M34.8923 14.1525C34.8923 14.1525 35.1693 14.2779 35.5729 14.4867C35.9772 14.6929 36.5069 14.9911 37.0269 15.3038C37.2821 15.47 37.5369 15.6365 37.7724 15.7979C38.0116 15.9525 38.2175 16.125 38.3974 16.2659C38.7542 16.5527 38.9816 16.7552 38.9816 16.7552C39.0176 16.7875 39.0209 16.8427 38.9886 16.8791C38.9604 16.9106 38.9148 16.9169 38.8796 16.8965L38.8744 16.8935C38.8744 16.8935 38.6114 16.7418 38.2323 16.4978C37.8625 16.2418 37.3344 15.9492 36.8325 15.6191C36.3143 15.3108 35.8099 14.9811 35.4282 14.7333C35.0484 14.4837 34.8036 14.3034 34.8036 14.3034C34.7647 14.2745 34.7561 14.2196 34.7851 14.1803C34.8099 14.1462 34.8552 14.1358 34.8923 14.1525Z" fill="white"/>
<path d="M50.0467 19.2608C50.0467 19.2608 50.0326 19.414 49.9888 19.6369C49.9451 19.8598 49.8757 20.1532 49.7856 20.4407C49.7144 20.7292 49.6209 21.0119 49.5438 21.2233C49.4662 21.4344 49.3991 21.5727 49.3991 21.5727L49.3972 21.5768C49.3757 21.6209 49.3227 21.6395 49.2785 21.618C49.2459 21.602 49.227 21.5686 49.2285 21.5341C49.2285 21.5341 49.2352 21.3806 49.2678 21.1539C49.3015 20.9277 49.355 20.6261 49.431 20.3313C49.5182 20.0434 49.6261 19.7615 49.7151 19.5527C49.8041 19.3439 49.8791 19.2096 49.8791 19.2096C49.9028 19.1666 49.9573 19.151 50.0007 19.1748C50.033 19.1926 50.0497 19.2271 50.0467 19.2608Z" fill="white"/>
<path d="M34.284 15.8239C34.284 15.8239 34.2848 15.9623 34.2625 16.1641C34.2288 16.3695 34.2306 16.6244 34.1913 16.8781C34.1857 17.1381 34.1397 17.3977 34.1375 17.5958C34.1242 17.7935 34.0997 17.9289 34.0997 17.9289L34.0986 17.9367C34.0897 17.9849 34.0441 18.0171 33.9958 18.0082C33.9613 18.0023 33.935 17.9771 33.9261 17.9452C33.9261 17.9452 33.8883 17.8124 33.8538 17.6065C33.8397 17.5038 33.8148 17.3833 33.8174 17.2534C33.8145 17.1232 33.8182 16.9845 33.8219 16.8458C33.8415 16.7063 33.8619 16.5665 33.8879 16.4374C33.9072 16.305 33.9528 16.1963 33.984 16.0999C34.0522 15.9085 34.1134 15.7846 34.1134 15.7846C34.1357 15.7401 34.1894 15.7219 34.234 15.7438C34.2651 15.7594 34.2837 15.7913 34.284 15.8239Z" fill="white"/>
<path d="M44.7393 21.8004C44.7393 21.8004 44.7082 21.8772 44.644 21.9751C44.5668 22.0738 44.5208 22.1973 44.4359 22.3012C44.374 22.4262 44.2775 22.5341 44.2271 22.6309C44.1677 22.7229 44.1121 22.7834 44.1121 22.7834L44.1032 22.793C44.0687 22.8301 44.0108 22.8323 43.9738 22.7982C43.9548 22.7808 43.9448 22.7574 43.9441 22.7336C43.9441 22.7336 43.9415 22.6506 43.9619 22.5274C43.9752 22.4673 43.983 22.3924 44.0171 22.3227C44.0465 22.2507 44.0843 22.1765 44.1225 22.1027C44.1744 22.0334 44.2275 21.9647 44.2824 21.9058C44.3343 21.8401 44.394 21.8082 44.4407 21.7737C44.5383 21.7088 44.6147 21.6769 44.6147 21.6769C44.6629 21.6569 44.7185 21.6795 44.7386 21.7277C44.749 21.7522 44.7482 21.7782 44.7393 21.8004Z" fill="white"/>
<path d="M44.7469 46.8155C44.7469 46.8155 45.1489 47.3007 45.7327 48.0425C46.0217 48.416 46.3666 48.8456 46.722 49.3166C47.0781 49.7869 47.4582 50.2888 47.8384 50.7902C48.2116 51.2969 48.5851 51.804 48.9348 52.2791C49.2794 52.7583 49.6006 53.206 49.8762 53.5892C50.42 54.3618 50.7746 54.8825 50.7746 54.8825C50.8024 54.9222 50.7927 54.9767 50.7531 55.0046C50.7156 55.0309 50.664 55.0224 50.6351 54.9886C50.6351 54.9886 50.236 54.5012 49.65 53.7609C49.3603 53.3881 49.0227 52.953 48.6607 52.4868C48.3039 52.0165 47.9241 51.515 47.5439 51.0135C47.1704 50.5069 46.7973 49.9998 46.4471 49.5251C46.0962 49.0507 45.7817 48.5978 45.5054 48.215C44.959 47.4442 44.6078 46.9209 44.6078 46.9209C44.5803 46.8812 44.5903 46.8267 44.63 46.7989C44.6667 46.7736 44.7179 46.7818 44.7469 46.8155Z" fill="white"/>
<path d="M24.0991 157.384C25.2912 159.894 26.3167 162.065 27.0686 163.725C29.1361 168.285 30.5667 174.383 31.524 179.821H62.2259C61.7237 176.826 61.2267 173.727 60.8369 171.012C48.55 166.607 36.3993 161.894 24.0991 157.384Z" fill="#009A09"/>
<path d="M60.3637 167.455C59.373 159.084 60.7602 132.818 60.7602 131.369C60.7602 129.92 62.742 122.117 62.5439 117.689C62.3455 113.26 38.1664 83.2711 37.1757 82.6766C36.1846 82.082 31.8246 84.0638 28.8517 84.602C25.8788 85.1405 17.6935 83.809 17.5548 84.602C17.3564 85.7351 6.65442 105.667 6.65442 113.991C6.65442 120.998 17.7506 144.017 24.0981 157.384C36.3983 161.894 48.549 166.608 60.8363 171.012C60.6512 169.722 60.4898 168.518 60.3637 167.455Z" fill="#00BA00"/>
<path d="M41.4041 110.159C41.4041 110.159 52.9072 106.327 53.0622 106.592C53.2176 106.856 54.6163 108.969 54.6163 108.969C54.6163 108.969 42.8028 113.066 42.8028 112.67C42.8031 112.273 41.4041 110.159 41.4041 110.159Z" fill="#72EEEF"/>
<path d="M37.6949 85.5711C37.6949 85.5711 38.2661 86.1835 39.11 87.1134C39.9486 88.0466 41.0673 89.2906 42.1856 90.5347C42.7527 91.1482 43.3198 91.762 43.8513 92.3373C44.1217 92.6207 44.364 92.9133 44.6191 93.1652C44.8706 93.4211 45.108 93.6633 45.3276 93.8866C46.2007 94.7857 46.7764 95.3936 46.7764 95.3936L46.7793 95.397C46.8127 95.4322 46.8109 95.4871 46.776 95.5205C46.7426 95.5524 46.6903 95.552 46.6566 95.5212C46.6566 95.5212 46.0408 94.9534 45.1265 94.0884C44.8992 93.871 44.6529 93.6355 44.3921 93.3863C44.1284 93.14 43.8732 92.8584 43.6017 92.5743C43.062 92.0028 42.4868 91.3926 41.9111 90.7832C41.3581 90.1537 40.8054 89.5239 40.2869 88.9342C39.765 88.3467 39.3002 87.7806 38.8945 87.3014C38.0903 86.3367 37.5629 85.6861 37.5629 85.6861C37.5325 85.6486 37.538 85.5934 37.5755 85.563C37.6115 85.534 37.6638 85.5381 37.6949 85.5711Z" fill="white"/>
<path d="M19.4612 86.8549C19.4612 86.8549 19.7157 86.8749 20.1604 86.9094C20.6051 86.9409 21.2416 87.0014 22.0035 87.0459C22.3844 87.0689 22.7969 87.0934 23.2331 87.1197C23.6689 87.1538 24.1303 87.1494 24.6065 87.1687C25.0832 87.1776 25.5754 87.2109 26.0754 87.1902C26.5754 87.1805 27.0828 87.1709 27.5905 87.1612C28.0968 87.1253 28.6028 87.0893 29.1013 87.054C29.6016 87.0333 30.0857 86.9439 30.5571 86.8819C31.0263 86.8052 31.4881 86.777 31.9117 86.6702C32.3386 86.58 32.7422 86.4947 33.1146 86.4157C33.4899 86.3467 33.8241 86.2462 34.1212 86.1598C34.4191 86.0745 34.6783 85.9999 34.8923 85.9387C35.3204 85.8159 35.5648 85.7458 35.5648 85.7458L35.5704 85.7444C35.609 85.7332 35.6486 85.7555 35.6598 85.7937C35.6705 85.8311 35.6494 85.8701 35.613 85.882C35.613 85.882 35.3701 85.9617 34.945 86.1015C34.7321 86.1716 34.474 86.2562 34.1776 86.3538C33.8816 86.4528 33.5482 86.5685 33.1709 86.6438C32.7967 86.7314 32.3913 86.8263 31.9625 86.9264C31.5363 87.0429 31.0723 87.0856 30.5983 87.1635C30.1224 87.2295 29.6332 87.323 29.1291 87.3478C28.6261 87.3868 28.1154 87.4268 27.6043 87.4669C27.0924 87.4735 26.5802 87.4799 26.0761 87.4862C25.5717 87.5036 25.0769 87.4665 24.5976 87.4539C24.1184 87.4339 23.6548 87.4268 23.2171 87.3827C22.7791 87.3467 22.3651 87.3126 21.9827 87.2814C21.2179 87.2236 20.5881 87.126 20.1437 87.0811C19.7005 87.0288 19.4471 86.9991 19.4471 86.9991C19.4074 86.9947 19.3789 86.9587 19.3837 86.919C19.3885 86.8801 19.423 86.8523 19.4612 86.8549Z" fill="black"/>
<path d="M31.7515 135.781L32.1762 136.809C32.1918 136.846 32.174 136.888 32.1369 136.903C32.0998 136.919 32.0575 136.901 32.0423 136.864L32.0419 136.864L31.6302 135.831C31.6169 135.797 31.6332 135.759 31.6669 135.746C31.6999 135.732 31.7378 135.748 31.7515 135.781Z" fill="black"/>
<path d="M33.0635 138.965L33.947 141.122C33.9685 141.174 33.9433 141.234 33.8917 141.254C33.8398 141.276 33.7805 141.251 33.7593 141.199L33.759 141.198L32.9021 139.029C32.8843 138.985 32.9066 138.934 32.9511 138.917C32.9952 138.899 33.0453 138.921 33.0635 138.965Z" fill="black"/>
<path d="M34.8203 143.285L35.6886 145.451C35.7116 145.508 35.6838 145.574 35.6263 145.597C35.5688 145.62 35.5035 145.592 35.4805 145.535V145.534L34.6215 143.365C34.5996 143.31 34.6267 143.248 34.6816 143.226C34.7365 143.204 34.7984 143.231 34.8203 143.285Z" fill="black"/>
<path d="M36.5507 147.614L37.4105 149.784C37.4354 149.847 37.4046 149.917 37.3419 149.942C37.2792 149.967 37.208 149.936 37.1831 149.874L37.1828 149.873L36.3323 147.701C36.3089 147.64 36.3386 147.573 36.3987 147.549C36.4595 147.525 36.5274 147.554 36.5507 147.614Z" fill="black"/>
<path d="M38.2653 151.956L39.1128 154.128C39.1391 154.196 39.1057 154.273 39.0375 154.299C38.9696 154.325 38.8928 154.292 38.8665 154.224L38.8661 154.223L38.0279 152.047C38.0026 151.982 38.0353 151.908 38.1009 151.883C38.167 151.858 38.2404 151.89 38.2653 151.956Z" fill="black"/>
<path d="M39.9533 156.305L40.7763 158.488C40.8027 158.559 40.7674 158.637 40.697 158.664C40.6269 158.69 40.5482 158.655 40.5215 158.585L39.6966 156.402C39.6699 156.331 39.7055 156.252 39.7764 156.225C39.8472 156.199 39.9262 156.235 39.9533 156.305Z" fill="black"/>
<path d="M41.5795 160.68L42.3562 162.879C42.3795 162.946 42.345 163.017 42.279 163.041C42.2134 163.064 42.141 163.03 42.1177 162.964L41.3317 160.768C41.3072 160.7 41.3428 160.625 41.4111 160.6C41.4793 160.576 41.5543 160.611 41.5787 160.68L41.5795 160.68Z" fill="black"/>
<path d="M43.0749 165.112C43.0749 165.112 43.1105 165.253 43.1643 165.465C43.191 165.571 43.2221 165.695 43.2559 165.827C43.2741 165.892 43.2904 165.973 43.3019 166.038C43.3152 166.109 43.3286 166.181 43.3423 166.252C43.4506 166.825 43.5586 167.398 43.5586 167.398C43.5704 167.461 43.5293 167.522 43.4662 167.534C43.4031 167.546 43.3419 167.505 43.3297 167.442C43.3297 167.442 43.2192 166.869 43.1086 166.297C43.0945 166.226 43.0808 166.154 43.0675 166.084C43.0534 166.008 43.0419 165.951 43.023 165.884C42.9888 165.751 42.9573 165.628 42.9299 165.522C42.8757 165.31 42.839 165.169 42.839 165.169C42.8223 165.104 42.8616 165.039 42.9261 165.021C42.9911 165.005 43.0575 165.044 43.0738 165.109L43.0741 165.109L43.0749 165.112Z" fill="black"/>
<path d="M43.968 169.695L44.3642 171.993C44.3742 172.051 44.3352 172.107 44.2774 172.116C44.2195 172.126 44.1642 172.088 44.1542 172.03L43.7481 169.733C43.7373 169.672 43.7777 169.614 43.8386 169.604C43.8994 169.593 43.9573 169.633 43.968 169.694V169.695Z" fill="black"/>
<path d="M44.7519 174.293L45.1257 176.595C45.1332 176.643 45.1013 176.687 45.0542 176.695C45.0074 176.703 44.9633 176.671 44.9551 176.624L44.5534 174.327C44.5438 174.272 44.5805 174.22 44.6354 174.21C44.6903 174.201 44.7426 174.238 44.7519 174.292V174.293Z" fill="black"/>
<path d="M45.4951 178.897L45.6694 179.995C45.6754 180.031 45.6509 180.064 45.6149 180.07C45.5793 180.076 45.5459 180.052 45.54 180.016L45.3523 178.921C45.3456 178.881 45.372 178.844 45.4116 178.837C45.451 178.83 45.4884 178.857 45.4951 178.896V178.897Z" fill="black"/>
<path d="M103.817 153.607L103.54 162.793C103.54 162.793 106.756 163.585 111.56 163.927C110.766 158.902 109.824 153.942 109.22 148.925C106.378 151.666 103.817 153.607 103.817 153.607Z" fill="#E85F3A"/>
<path d="M132.474 143.082C132.313 142.538 129.085 145.261 124.603 147.57C120.123 149.88 114.663 150.044 114.663 150.044C114.663 150.044 118.181 146.345 119.969 144.532C120.251 144.247 117.705 139.472 117.363 139.392C117.02 139.312 114.71 143.11 111.448 146.652C110.713 147.451 109.957 148.214 109.221 148.925C109.824 153.942 110.767 158.902 111.56 163.927C113.474 164.063 115.64 164.128 117.955 164.044C126.084 163.747 130.974 161.055 132.052 160.622C133.129 160.188 132.636 143.626 132.474 143.082Z" fill="#FC7857"/>
<path d="M18.6602 100.453C24.0277 97.4277 30.831 99.3268 33.8562 104.694C33.8562 104.694 33.8896 104.754 33.9541 104.868C34.0406 105.013 34.1693 105.228 34.3369 105.509C34.6878 106.087 35.2156 106.943 35.9129 108.041C36.6132 109.137 37.4774 110.468 38.4978 111.982C39.5193 113.495 40.6892 115.196 42.0067 117.013C42.6617 117.927 43.3505 118.872 44.0812 119.832C44.4447 120.316 44.8145 120.806 45.1898 121.304C45.5723 121.794 45.961 122.291 46.3549 122.796C47.9287 124.817 49.6475 126.873 51.4572 128.956C51.9082 129.48 52.38 129.976 52.8466 130.494C53.3117 130.998 53.7947 131.551 54.2539 132.026C54.7116 132.5 55.1722 132.978 55.6348 133.458L56.3313 134.185L57.1789 134.982C57.746 135.514 58.3146 136.05 58.8847 136.585L58.9915 136.686L59.0453 136.736C59.1629 136.834 58.9596 136.668 58.9292 136.644L58.9285 136.643C58.924 136.639 58.9248 136.639 58.9292 136.644L58.9507 136.662L59.1284 136.816L59.483 137.125L60.1933 137.75C60.6803 138.158 61.2026 138.545 61.7066 138.95C62.2266 139.343 62.7786 139.711 63.3142 140.098C67.7221 143.094 72.9828 145.434 78.1585 147.173C83.3454 148.919 88.4603 150.094 92.8931 150.901C97.3321 151.7 101.097 152.132 103.717 152.374C104.23 152.421 104.698 152.46 105.121 152.493C104.887 156.208 104.462 159.941 103.992 163.679C103.788 163.684 103.579 163.689 103.36 163.694C100.464 163.755 96.347 163.752 91.3894 163.43C86.4325 163.097 80.6284 162.454 74.3908 161.12C68.1639 159.777 61.4644 157.755 54.9623 154.378C54.1567 153.936 53.344 153.512 52.5447 153.045C51.7509 152.557 50.9501 152.088 50.1664 151.574L49.001 150.776L48.4201 150.375L48.1297 150.174L48.0934 150.149C48.1108 150.165 47.8033 149.913 47.9198 150.01L47.8608 149.966L47.7436 149.878C47.1164 149.41 46.4914 148.943 45.8682 148.477L44.9361 147.781C44.5968 147.504 44.2577 147.228 43.9198 146.953C43.2433 146.398 42.5705 145.847 41.9013 145.298C41.2366 144.748 40.6584 144.222 40.039 143.687C39.4344 143.153 38.8164 142.63 38.2352 142.096C35.9018 139.96 33.6975 137.854 31.6901 135.806C31.1871 135.293 30.6908 134.789 30.2023 134.291C29.7239 133.788 29.2532 133.291 28.7895 132.802C27.8578 131.828 26.9795 130.872 26.1434 129.948C24.4621 128.107 22.9658 126.386 21.6498 124.847C20.3357 123.307 19.2103 121.941 18.2882 120.805C17.3687 119.667 16.6484 118.749 16.1547 118.113C15.9036 117.785 15.7111 117.532 15.5809 117.362C15.4318 117.161 15.3543 117.057 15.3543 117.057L15.1329 116.759C14.8766 116.407 14.6373 116.037 14.4185 115.649C11.3944 110.281 13.2931 103.478 18.6602 100.453Z" fill="#009A09"/>
<path d="M58.2652 138.041C58.2652 138.041 58.9892 138.516 60.0756 139.228C60.6138 139.591 61.2466 140.007 61.9238 140.45C62.2621 140.673 62.6086 140.908 62.9717 141.128C63.3322 141.351 63.6987 141.579 64.0651 141.807C64.4379 142.022 64.8107 142.238 65.1779 142.45C65.5403 142.671 65.9167 142.85 66.2758 143.033C66.6393 143.207 66.9749 143.411 67.3169 143.55C67.6563 143.697 67.9768 143.836 68.2728 143.964C68.4211 144.027 68.5632 144.089 68.6982 144.146C68.8369 144.195 68.9686 144.241 69.0921 144.284C69.3395 144.371 69.5554 144.447 69.7334 144.508C70.0895 144.633 70.2931 144.704 70.2931 144.704L70.3009 144.707C70.3466 144.723 70.3703 144.773 70.3547 144.818C70.3391 144.862 70.292 144.886 70.2479 144.873C70.2479 144.873 70.0387 144.813 69.6737 144.707C69.4905 144.654 69.2683 144.59 69.0135 144.516C68.8859 144.478 68.7498 144.439 68.6066 144.398C68.466 144.349 68.3221 144.287 68.1697 144.228C67.8659 144.108 67.5369 143.977 67.1886 143.839C66.8373 143.706 66.4909 143.516 66.1222 143.34C65.7565 143.159 65.3733 142.98 65.005 142.761C64.6323 142.551 64.2532 142.337 63.8745 142.123C63.1416 141.656 62.4008 141.201 61.7332 140.737C61.0552 140.286 60.4439 139.838 59.9139 139.463C59.3835 139.087 58.9528 138.759 58.6461 138.537C58.3408 138.313 58.1661 138.184 58.1661 138.184C58.1272 138.156 58.1186 138.101 58.1472 138.062C58.1739 138.025 58.2262 138.016 58.2652 138.041Z" fill="white"/>
<path d="M15.4547 115.237C15.4547 115.237 16.4012 116.364 17.8215 118.055C18.5273 118.902 19.3508 119.891 20.2332 120.951C20.6745 121.48 21.1256 122.032 21.6026 122.575C22.0751 123.122 22.5551 123.678 23.035 124.234C23.5265 124.78 24.0176 125.325 24.5013 125.862C24.9768 126.407 25.4805 126.909 25.9582 127.403C26.4448 127.889 26.8833 128.392 27.3465 128.819C27.8031 129.253 28.2352 129.664 28.6336 130.043C28.8335 130.233 29.0249 130.414 29.2067 130.587C29.3966 130.75 29.5765 130.906 29.7456 131.052C30.0843 131.344 30.3791 131.599 30.6221 131.808C31.1087 132.228 31.3865 132.468 31.3865 132.468L31.3914 132.473C31.4344 132.51 31.4388 132.574 31.4021 132.617C31.3661 132.659 31.3034 132.664 31.2608 132.63C31.2608 132.63 30.973 132.4 30.4689 131.997C30.2167 131.795 29.9107 131.55 29.5594 131.269C29.3836 131.129 29.1967 130.979 28.9997 130.822C28.8076 130.658 28.6158 130.475 28.4099 130.29C28.0012 129.917 27.558 129.513 27.0888 129.086C26.614 128.664 26.1592 128.173 25.6693 127.685C25.1852 127.191 24.6748 126.689 24.1934 126.146C23.7038 125.61 23.2064 125.065 22.7086 124.521C22.2305 123.96 21.7524 123.399 21.2817 122.846C20.8066 122.298 20.3593 121.742 19.9205 121.209C19.0392 120.145 18.248 119.129 17.5604 118.265C16.201 116.526 15.2944 115.366 15.2944 115.366C15.2596 115.322 15.2674 115.258 15.3119 115.222C15.3564 115.189 15.4194 115.195 15.4547 115.237Z" fill="black"/>
<path d="M124.572 151.555C124.572 151.555 125.032 151.344 125.732 151.055C125.907 150.983 126.097 150.906 126.297 150.824C126.501 150.746 126.699 150.636 126.915 150.545C127.342 150.353 127.798 150.147 128.253 149.942C128.699 149.715 129.145 149.488 129.563 149.274C129.768 149.162 129.982 149.079 130.165 148.965C130.35 148.856 130.525 148.753 130.687 148.658C131.336 148.281 131.782 148.043 131.782 148.043L131.79 148.039C131.84 148.012 131.902 148.031 131.929 148.081C131.953 148.126 131.939 148.181 131.899 148.211C131.899 148.211 131.492 148.511 130.862 148.942C130.703 149.048 130.532 149.164 130.351 149.286C130.172 149.412 129.964 149.513 129.756 149.629C129.336 149.853 128.888 150.093 128.439 150.333C127.971 150.533 127.503 150.733 127.064 150.92C126.845 151.012 126.634 151.109 126.427 151.173C126.221 151.243 126.027 151.308 125.848 151.368C125.129 151.606 124.644 151.747 124.644 151.747C124.589 151.763 124.532 151.731 124.516 151.677C124.502 151.628 124.527 151.576 124.572 151.555Z" fill="black"/>
<path d="M125.12 156.01C125.12 156.01 125.544 155.762 126.193 155.414C126.356 155.329 126.532 155.236 126.718 155.137C126.908 155.042 127.088 154.916 127.288 154.807C127.683 154.58 128.103 154.337 128.524 154.094C128.934 153.832 129.344 153.57 129.729 153.325C129.918 153.197 130.117 153.096 130.284 152.971C130.455 152.85 130.616 152.735 130.765 152.629C131.364 152.21 131.777 151.943 131.777 151.943L131.783 151.939C131.831 151.908 131.894 151.921 131.925 151.969C131.952 152.012 131.944 152.068 131.906 152.101C131.906 152.101 131.537 152.427 130.964 152.896C130.82 153.013 130.664 153.139 130.499 153.272C130.336 153.409 130.146 153.528 129.955 153.659C129.57 153.916 129.159 154.19 128.748 154.464C128.315 154.703 127.881 154.942 127.474 155.166C127.271 155.276 127.076 155.391 126.882 155.472C126.689 155.558 126.508 155.64 126.34 155.715C125.666 156.013 125.21 156.194 125.21 156.194C125.157 156.215 125.097 156.189 125.076 156.137C125.057 156.089 125.077 156.035 125.12 156.01Z" fill="black"/>
<path d="M126.231 159.164C126.231 159.164 126.526 158.969 126.983 158.701C127.214 158.571 127.477 158.409 127.769 158.254C128.06 158.098 128.371 157.931 128.682 157.765C128.997 157.607 129.312 157.449 129.608 157.301C129.904 157.154 130.187 157.03 130.426 156.917C130.908 156.698 131.238 156.568 131.238 156.568C131.291 156.547 131.351 156.573 131.371 156.626C131.39 156.672 131.372 156.724 131.332 156.75C131.332 156.75 131.036 156.944 130.579 157.212C130.349 157.343 130.085 157.502 129.793 157.659C129.502 157.816 129.192 157.982 128.881 158.149C128.566 158.307 128.251 158.465 127.955 158.613C127.66 158.762 127.376 158.884 127.137 158.998C126.655 159.217 126.325 159.346 126.325 159.346C126.272 159.367 126.212 159.341 126.192 159.288C126.173 159.242 126.191 159.19 126.231 159.164Z" fill="black"/>
<path d="M202.132 109.999C202.132 109.999 186.946 101.763 190.034 89.1512C193.123 76.5394 213.111 63.7036 214.369 56.4967C215.629 49.2902 202.593 55.3065 204.126 44.6234C204.547 41.6902 210.754 33.6848 220.792 40.1194C230.83 46.554 234.562 54.7905 235.334 67.1449C236.107 79.4996 202.132 109.999 202.132 109.999Z" fill="#9B3D27"/>
<path d="M202.154 92.0951C202.154 92.0951 202.192 91.9078 202.258 91.5796C202.293 91.4164 202.335 91.2172 202.384 90.9894C202.408 90.8752 202.435 90.7543 202.462 90.6263C202.501 90.5002 202.542 90.3674 202.585 90.2291C202.672 89.952 202.766 89.6512 202.865 89.3337C202.965 89.0154 203.107 88.6972 203.241 88.3611C203.377 88.0266 203.513 87.6779 203.687 87.3408C203.854 86.9999 204.022 86.6531 204.191 86.3066C204.383 85.9732 204.576 85.6397 204.766 85.3115C204.948 84.9788 205.158 84.6706 205.355 84.3683C205.555 84.0674 205.741 83.7722 205.94 83.5085C206.139 83.2444 206.328 82.9951 206.501 82.7648C206.67 82.5315 206.838 82.3268 206.994 82.1521C207.147 81.9748 207.28 81.8201 207.39 81.6929C207.612 81.4406 207.739 81.2964 207.739 81.2964C207.776 81.2541 207.841 81.2496 207.883 81.2871C207.923 81.3223 207.929 81.382 207.898 81.4243L207.894 81.4291C207.894 81.4291 207.781 81.5823 207.583 81.8505C207.482 81.9833 207.361 82.145 207.221 82.3301C207.078 82.5122 206.928 82.7262 206.768 82.9625C206.606 83.1969 206.43 83.4506 206.244 83.7192C206.057 83.9866 205.891 84.2889 205.695 84.5852C205.504 84.8861 205.301 85.1924 205.126 85.5225C204.944 85.8482 204.759 86.1791 204.573 86.5099C204.403 86.8486 204.233 87.1872 204.066 87.5207C203.889 87.8504 203.752 88.1905 203.613 88.5177C203.481 88.8467 203.325 89.156 203.216 89.4605C203.107 89.7654 203.003 90.054 202.907 90.3196C202.859 90.4527 202.813 90.5807 202.769 90.702C202.733 90.8277 202.699 90.9468 202.666 91.0588C202.602 91.2825 202.547 91.4783 202.501 91.6389C202.406 91.9597 202.352 92.1433 202.352 92.1433C202.337 92.1975 202.28 92.2287 202.226 92.2131C202.174 92.199 202.143 92.1467 202.154 92.0951Z" fill="black"/>
<path d="M191.992 97.8587C191.4 97.9481 190.803 98.0383 190.2 98.1295C189.596 98.2133 188.988 98.2964 188.375 98.3821C187.145 98.559 185.9 98.7133 184.637 98.8676C183.36 99.0342 182.131 99.1573 180.871 99.2975L179.923 99.4006L178.913 99.4882C178.238 99.5464 177.562 99.6054 176.884 99.6643C175.715 99.7675 174.54 99.8639 173.34 99.8965C168.546 100.056 163.539 99.5442 158.85 98.6773C154.153 97.8131 149.768 96.6065 146.053 95.4044C142.335 94.2027 139.284 93.0013 137.188 92.1215C134.275 90.8971 131.375 89.6912 128.385 88.6582C129.041 92.0117 129.427 96.1077 129.807 99.4611C129.909 99.5245 130.02 99.5939 130.145 99.6729C130.731 100.035 131.581 100.547 132.668 101.174C134.844 102.424 137.971 104.131 141.861 105.949C145.751 107.766 150.404 109.703 155.626 111.36C160.845 113.012 166.648 114.389 172.766 114.964C174.292 115.111 175.847 115.199 177.394 115.233C178.074 115.247 178.753 115.261 179.43 115.275L180.443 115.296C180.8 115.296 181.157 115.296 181.512 115.296C182.238 115.295 182.967 115.297 183.686 115.295C186.756 109.341 190.216 103.543 193.44 97.6362C192.962 97.7115 192.48 97.7872 191.992 97.8587Z" fill="#0088F7"/>
<path d="M226.646 100.894C225.382 95.5609 220.034 92.2624 214.7 93.5265L214.676 93.5324C214.676 93.5324 214.377 93.6033 213.817 93.7364C213.217 93.8696 212.339 94.0665 211.22 94.3154C208.963 94.805 205.711 95.4812 201.791 96.2063C199.831 96.568 197.705 96.9463 195.455 97.312C194.794 97.4207 194.12 97.5294 193.44 97.6362C190.217 103.543 186.756 109.341 183.686 115.295C184.375 115.292 185.055 115.287 185.714 115.272C187.079 115.252 188.427 115.23 189.745 115.183C190.406 115.163 191.062 115.144 191.711 115.124C192.358 115.096 192.999 115.069 193.634 115.041C194.904 114.992 196.143 114.926 197.348 114.858C199.761 114.728 202.036 114.571 204.135 114.412C208.334 114.094 211.826 113.752 214.285 113.489C215.521 113.35 216.492 113.24 217.155 113.165C217.854 113.078 218.226 113.031 218.226 113.031C218.573 112.987 218.932 112.923 219.279 112.841C224.612 111.576 227.911 106.228 226.646 100.894Z" fill="#057CCE"/>
<path d="M106.16 89.1805C107.365 88.4498 112.685 87.9286 115.163 86.5411C117.64 85.1538 121.108 83.8657 121.802 84.3612C122.496 84.8564 127.118 87.9324 126.82 88.1304C126.523 88.3285 112.883 94.5242 108.92 93.7535C104.956 92.9823 105.588 89.5273 106.16 89.1805Z" fill="#FFAF84"/>
<path d="M124.478 87.4331C122 86.8386 114.402 90.6445 114.634 92.5072C114.866 94.3699 115.56 96.9823 118.631 102.068C118.631 102.068 126.334 106.868 129.807 99.4611C129.694 99.7022 129.926 99.2059 129.807 99.4611C129.426 96.1077 129.041 92.0117 128.385 88.6583C126.861 88.1316 125.378 87.6494 124.478 87.4331Z" fill="#FFAF84"/>
<path d="M83.9477 90.643C83.9477 91.199 82.1639 103.411 83.155 103.597C84.1461 103.784 92.5636 103.807 99.9986 103.597C107.433 103.388 114.628 101.406 114.628 101.406L110.494 92.4593L83.9477 90.643Z" fill="#009A09"/>
<path d="M85.8359 92.0339C85.8359 92.472 84.3582 102.091 85.1794 102.238C86.0006 102.385 92.9749 102.403 99.135 102.238C105.295 102.073 111.257 100.512 111.257 100.512L107.831 93.4645L85.8359 92.0339Z" stroke="white" stroke-miterlimit="10"/>
<path d="M86.9211 79.5056C87.2849 79.6907 102.649 89.7825 106.74 91.4769C110.831 93.1701 119.028 93.0814 119.028 93.0814L116.788 102.969C116.788 102.969 104.263 102.991 96.8304 100.91C89.3984 98.8291 81.1734 94.6237 80.9753 93.7535C80.7773 92.8834 86.2527 79.1655 86.9211 79.5056Z" fill="#00BA00"/>
<path d="M88.6113 81.9718C88.9065 82.122 101.356 90.2999 104.671 91.6726C107.987 93.0447 114.629 92.9731 114.629 92.9731L112.814 100.986C112.814 100.986 102.664 101.004 96.6412 99.3172C90.6187 97.631 83.9537 94.2231 83.7927 93.5179C83.6325 92.8125 88.0697 81.6962 88.6113 81.9718Z" stroke="white" stroke-miterlimit="10"/>
<path d="M107.857 94.3362C108.055 93.94 118.038 90.6044 119.524 91.6942C121.011 92.7843 126.659 99.4236 125.965 100.117C125.272 100.811 117.999 108.88 114.63 107.591C111.26 106.303 106.271 97.5071 107.857 94.3362Z" fill="#FFCBAB"/>
<path d="M150.447 97.9018C150.447 97.9018 150.957 98.0193 151.849 98.2256C152.295 98.3287 152.837 98.4537 153.458 98.5972C154.079 98.7397 154.779 98.911 155.548 99.0534C156.316 99.2063 157.148 99.3713 158.029 99.5464C158.905 99.7408 159.847 99.8502 160.813 100.005C161.782 100.142 162.778 100.332 163.803 100.408C164.826 100.509 165.865 100.611 166.903 100.713C167.945 100.764 168.988 100.816 170.014 100.866C170.27 100.879 170.526 100.892 170.78 100.904C171.034 100.915 171.287 100.903 171.539 100.904C172.042 100.899 172.54 100.895 173.029 100.89C174.008 100.873 174.955 100.898 175.849 100.813C176.744 100.752 177.591 100.695 178.372 100.642C179.155 100.604 179.866 100.504 180.499 100.433C181.131 100.359 181.682 100.295 182.137 100.241C183.045 100.136 183.564 100.075 183.564 100.075L183.569 100.075C183.617 100.069 183.661 100.103 183.666 100.151C183.672 100.198 183.638 100.241 183.592 100.248C183.592 100.248 183.073 100.32 182.165 100.447C181.711 100.511 181.16 100.588 180.528 100.676C179.895 100.762 179.183 100.881 178.397 100.921C177.614 100.98 176.764 101.044 175.866 101.112C174.969 101.205 174.017 101.187 173.034 101.212C172.543 101.22 172.043 101.229 171.537 101.237C171.284 101.239 171.03 101.253 170.774 101.244C170.518 101.233 170.261 101.223 170.004 101.212C168.972 101.169 167.924 101.125 166.876 101.081C165.833 100.971 164.79 100.861 163.763 100.753C162.733 100.668 161.735 100.47 160.764 100.325C159.795 100.162 158.851 100.044 157.972 99.8416C157.09 99.6591 156.256 99.4863 155.486 99.3268C154.713 99.181 154.018 98.9945 153.4 98.8361C152.783 98.6781 152.244 98.5405 151.8 98.4273C150.913 98.2007 150.406 98.0713 150.406 98.0713C150.36 98.0594 150.331 98.0116 150.343 97.9648C150.355 97.9196 150.401 97.8914 150.447 97.9018Z" fill="white"/>
<path d="M110.309 97.3977C110.309 97.3977 110.46 97.3595 110.724 97.2935C110.985 97.2223 111.377 97.157 111.813 97.0127C112.033 96.9463 112.271 96.8747 112.524 96.7987C112.776 96.7252 113.036 96.6147 113.31 96.5257C113.584 96.4307 113.867 96.3361 114.147 96.2167C114.429 96.1028 114.716 95.9875 115.003 95.8718C115.572 95.6284 116.145 95.3933 116.672 95.1466C117.204 94.9092 117.701 94.6882 118.126 94.4983C118.98 94.1199 119.557 93.8822 119.557 93.8822C119.61 93.8603 119.669 93.8855 119.691 93.9378C119.711 93.9864 119.69 94.0417 119.645 94.0669C119.645 94.0669 119.1 94.3692 118.271 94.7983C117.853 95.0086 117.372 95.2646 116.841 95.5131C116.316 95.769 115.741 96.0168 115.169 96.2723C114.877 96.3851 114.585 96.4979 114.297 96.6088C114.011 96.7249 113.72 96.8165 113.441 96.9085C113.16 96.9986 112.894 97.0947 112.629 97.1573C112.365 97.2223 112.116 97.2835 111.885 97.3398C111.77 97.3673 111.661 97.394 111.556 97.4192C111.451 97.4352 111.351 97.4504 111.257 97.4648C111.069 97.4934 110.906 97.5186 110.771 97.539C110.501 97.5768 110.346 97.5987 110.346 97.5987C110.29 97.6065 110.239 97.5679 110.23 97.5119C110.224 97.4593 110.259 97.4103 110.309 97.3977Z" fill="black"/>
<path d="M113.42 101.681C113.42 101.681 113.836 101.326 114.476 100.817C114.798 100.566 115.168 100.263 115.577 99.9566C115.985 99.6484 116.42 99.3194 116.854 98.9904C117.276 98.6481 117.697 98.3057 118.093 97.9849C118.488 97.6644 118.867 97.3769 119.187 97.1247C119.833 96.6266 120.276 96.3072 120.276 96.3072L120.279 96.3054C120.325 96.2724 120.389 96.2824 120.422 96.3287C120.452 96.3707 120.446 96.4281 120.409 96.463C120.409 96.463 120.012 96.8387 119.398 97.3825C119.088 97.6514 118.732 97.9723 118.34 98.3031C117.948 98.6336 117.529 98.9863 117.111 99.3391C116.671 99.6599 116.23 99.9807 115.817 100.282C115.405 100.583 115.008 100.849 114.675 101.086C114.002 101.551 113.542 101.846 113.542 101.846C113.494 101.876 113.43 101.862 113.4 101.815C113.372 101.771 113.382 101.714 113.42 101.681Z" fill="black"/>
<path d="M117.856 103.736C117.856 103.736 118.13 103.373 118.563 102.848C118.782 102.589 119.03 102.278 119.311 101.96C119.59 101.64 119.889 101.299 120.187 100.958C120.467 100.606 120.746 100.254 121.008 99.9232C121.271 99.5928 121.528 99.2942 121.743 99.0327C122.179 98.5156 122.486 98.18 122.486 98.18L122.491 98.1744C122.529 98.1329 122.593 98.1295 122.635 98.1677C122.673 98.2022 122.679 98.2579 122.652 98.2994C122.652 98.2994 122.403 98.6796 122.007 99.2359C121.805 99.5115 121.577 99.8391 121.319 100.18C121.061 100.52 120.786 100.884 120.51 101.247C120.205 101.581 119.899 101.916 119.612 102.229C119.327 102.543 119.046 102.824 118.812 103.071C118.339 103.559 118.009 103.871 118.009 103.871C117.968 103.91 117.903 103.909 117.864 103.868C117.829 103.831 117.826 103.774 117.856 103.736Z" fill="black"/>
<path d="M213.998 117.342C222.706 113.361 231.413 109.05 240.12 104.849C237.998 95.4734 233.843 86.5288 233.843 86.5288L218.263 87.2544C218.263 87.2544 214.18 91.7661 206.032 100.117C197.884 108.469 188.864 111.018 189.223 119.738C189.279 121.093 189.475 122.285 189.766 123.346C197.533 125.608 206.494 120.954 213.998 117.342Z" fill="#00D2D9"/>
<path d="M240.915 109.036C240.71 107.65 240.438 106.245 240.122 104.85C231.414 109.05 222.707 113.361 213.999 117.342C206.496 120.955 197.534 125.609 189.768 123.347C191.35 129.112 195.758 130.993 195.926 134.007C196.124 137.575 199.668 158.187 199.878 161.953C199.899 162.336 199.877 162.963 199.821 163.776C210.573 159.232 220.558 153.163 230.424 146.912C233.57 137.85 242.184 117.602 240.915 109.036Z" fill="#08C1C1"/>
<path d="M230.424 146.911C220.558 153.162 210.572 159.232 199.82 163.776C199.586 167.146 198.758 173.753 197.944 179.82H243.932C237.794 168.219 229.738 152.836 229.327 151.251C229.194 150.736 229.639 149.17 230.424 146.911Z" fill="#00D2D9"/>
<path d="M191.482 115.443C191.482 115.443 191.555 115.305 191.681 115.064C191.746 114.944 191.824 114.798 191.914 114.63C191.958 114.546 192.006 114.457 192.057 114.364C192.111 114.272 192.179 114.18 192.245 114.081C192.379 113.886 192.524 113.673 192.677 113.448C192.825 113.218 193.021 113.011 193.207 112.782C193.399 112.557 193.587 112.316 193.812 112.102C194.029 111.881 194.251 111.657 194.471 111.433C194.71 111.228 194.947 111.023 195.182 110.821C195.411 110.613 195.66 110.438 195.893 110.258C196.129 110.082 196.351 109.903 196.579 109.759C196.804 109.611 197.017 109.472 197.213 109.342C197.601 109.077 197.955 108.906 198.188 108.763C198.426 108.628 198.561 108.55 198.561 108.55C198.603 108.526 198.657 108.541 198.68 108.583C198.703 108.622 198.691 108.673 198.654 108.698L198.65 108.701C198.65 108.701 198.522 108.787 198.297 108.94C198.074 109.096 197.745 109.303 197.371 109.579C197.183 109.715 196.979 109.862 196.763 110.017C196.543 110.167 196.336 110.357 196.104 110.531C195.878 110.711 195.635 110.887 195.413 111.095C195.186 111.296 194.955 111.501 194.724 111.705C194.505 111.922 194.286 112.138 194.07 112.351C193.847 112.558 193.66 112.79 193.47 113.007C193.288 113.23 193.083 113.426 192.932 113.64C192.774 113.851 192.625 114.05 192.488 114.234C192.344 114.414 192.228 114.593 192.129 114.756C192.028 114.916 191.939 115.056 191.867 115.171C191.719 115.401 191.634 115.532 191.634 115.532C191.608 115.572 191.554 115.584 191.514 115.558C191.475 115.533 191.462 115.483 191.482 115.443Z" fill="white"/>
<path d="M219.628 140.487L219.565 141.597C219.563 141.638 219.528 141.668 219.488 141.667C219.448 141.664 219.417 141.629 219.419 141.589V141.588L219.497 140.479C219.5 140.443 219.531 140.415 219.568 140.418C219.604 140.42 219.63 140.451 219.628 140.487Z" fill="black"/>
<path d="M219.462 143.893L219.39 146.194C219.388 146.251 219.34 146.296 219.283 146.295C219.226 146.293 219.181 146.245 219.182 146.188L219.183 146.187L219.283 143.886C219.285 143.837 219.327 143.799 219.377 143.801C219.425 143.803 219.463 143.844 219.462 143.893Z" fill="black"/>
<path d="M219.347 148.491L219.358 150.792C219.358 150.856 219.307 150.907 219.244 150.907C219.18 150.908 219.129 150.857 219.128 150.793V150.793L219.129 148.491C219.129 148.431 219.177 148.382 219.237 148.382C219.299 148.382 219.347 148.431 219.347 148.491Z" fill="black"/>
<path d="M219.45 153.083C219.45 153.083 219.499 153.656 219.548 154.229C219.586 154.511 219.624 154.793 219.653 155.004C219.679 155.216 219.707 155.356 219.707 155.356C219.719 155.424 219.675 155.49 219.606 155.503C219.538 155.516 219.472 155.471 219.459 155.403V155.402L219.459 155.4C219.459 155.4 219.432 155.257 219.406 155.041C219.378 154.825 219.34 154.537 219.303 154.249C219.257 153.676 219.21 153.103 219.21 153.103C219.205 153.037 219.254 152.978 219.32 152.973C219.386 152.968 219.444 153.017 219.45 153.083Z" fill="black"/>
<path d="M220.315 157.553L221.062 159.729C221.086 159.8 221.048 159.878 220.977 159.903C220.905 159.927 220.827 159.89 220.803 159.818L220.802 159.816L220.066 157.637C220.042 157.569 220.079 157.494 220.148 157.471C220.217 157.448 220.291 157.485 220.315 157.553Z" fill="black"/>
<path d="M221.851 161.883L222.667 164.036C222.693 164.103 222.659 164.178 222.592 164.204C222.525 164.229 222.449 164.195 222.424 164.128L221.597 161.98C221.57 161.91 221.605 161.832 221.675 161.805C221.745 161.778 221.824 161.813 221.851 161.882V161.883Z" fill="black"/>
<path d="M223.503 166.178L224.354 168.317C224.379 168.378 224.348 168.448 224.287 168.472C224.225 168.497 224.156 168.467 224.132 168.406L223.271 166.271C223.245 166.207 223.276 166.134 223.34 166.108C223.404 166.083 223.477 166.113 223.503 166.177V166.178Z" fill="black"/>
<path d="M225.216 170.449L226.088 172.579C226.111 172.634 226.085 172.698 226.029 172.721C225.974 172.743 225.911 172.717 225.888 172.662L225.005 170.536C224.981 170.478 225.009 170.412 225.067 170.387C225.125 170.363 225.192 170.391 225.216 170.449H225.216Z" fill="black"/>
<path d="M226.969 174.706L227.849 176.832C227.868 176.877 227.846 176.93 227.801 176.948C227.756 176.967 227.704 176.946 227.685 176.901L226.779 174.785C226.756 174.733 226.781 174.672 226.833 174.65C226.886 174.627 226.946 174.652 226.969 174.704C226.969 174.704 226.969 174.706 226.969 174.706Z" fill="black"/>
<path d="M228.735 178.955L229.166 179.98C229.18 180.013 229.165 180.052 229.131 180.066C229.098 180.079 229.06 180.064 229.046 180.032L228.6 179.013C228.584 178.976 228.601 178.933 228.638 178.917C228.675 178.9 228.719 178.917 228.735 178.954L228.735 178.955Z" fill="black"/>
<path d="M154.107 151.448C150.927 148.571 148.57 145.39 148.272 145.489C147.975 145.588 146.104 150.029 146.377 150.26C148.11 151.723 151.531 154.719 151.531 154.719C151.531 154.719 146.675 155.016 142.513 153.331C138.351 151.647 135.267 149.493 135.168 149.988C135.069 150.484 135.976 165.214 136.967 165.511C137.958 165.809 142.513 167.799 149.747 167.403C152.958 167.227 155.816 166.758 158.003 166.291C157.272 162.174 157.089 157.903 156.839 153.736C155.953 153.044 155.018 152.272 154.107 151.448Z" fill="#FFCBAB"/>
<path d="M161.44 156.997C161.44 156.997 159.34 155.689 156.839 153.736C157.089 157.903 157.272 162.174 158.003 166.291C160.744 165.706 162.431 165.123 162.431 165.123L161.44 156.997Z" fill="#FFAF84"/>
<path d="M170.909 153.711C167.037 154.781 163.732 155.469 161.429 155.897C160.977 155.98 160.565 156.052 160.193 156.116C160.702 159.393 161.381 162.669 162.102 165.946C162.284 165.934 162.47 165.922 162.664 165.908C165.238 165.727 168.889 165.39 173.26 164.703C177.63 164.005 182.725 162.963 188.15 161.275C190.687 160.48 193.304 159.542 195.934 158.409C190.1 156.157 184.341 153.732 178.514 151.281C175.85 152.253 173.272 153.054 170.909 153.711Z" fill="#057CCE"/>
<path d="M232.658 102.942C227.652 100.694 221.771 102.931 219.524 107.937C219.524 107.937 219.499 107.992 219.451 108.099C219.386 108.235 219.289 108.436 219.164 108.698C218.899 109.239 218.501 110.042 217.971 111.072C217.439 112.101 216.78 113.352 215.998 114.778C215.215 116.202 214.316 117.806 213.295 119.525C212.788 120.388 212.253 121.283 211.683 122.194C211.4 122.651 211.112 123.117 210.819 123.59C210.52 124.055 210.216 124.527 209.907 125.006C208.675 126.928 207.317 128.89 205.881 130.885C205.523 131.386 205.145 131.864 204.774 132.361C204.402 132.846 204.019 133.375 203.65 133.835C203.283 134.292 202.913 134.753 202.541 135.216L201.982 135.918L201.295 136.694C200.836 137.212 200.375 137.733 199.913 138.255L199.826 138.353L199.783 138.402C199.686 138.498 199.853 138.335 199.878 138.31L199.861 138.329L199.715 138.479L199.426 138.782L198.846 139.393C198.448 139.795 198.016 140.18 197.601 140.581C197.172 140.971 196.713 141.342 196.269 141.73C192.602 144.745 188.126 147.247 183.676 149.209C181.942 149.975 180.211 150.662 178.514 151.281C184.342 153.732 190.101 156.156 195.935 158.409C198.917 157.125 201.916 155.59 204.835 153.718C205.514 153.261 206.201 152.819 206.872 152.339C207.536 151.842 208.208 151.361 208.862 150.842L209.83 150.04L210.313 149.637L210.554 149.435L210.584 149.41C210.57 149.426 210.822 149.177 210.727 149.273L210.776 149.229L210.873 149.142C211.391 148.675 211.908 148.209 212.423 147.746L213.193 147.053C213.472 146.78 213.75 146.508 214.027 146.236C214.582 145.689 215.134 145.146 215.683 144.605C216.228 144.063 216.698 143.55 217.204 143.025C217.697 142.502 218.203 141.989 218.675 141.467C220.571 139.383 222.356 137.337 223.97 135.357C224.375 134.862 224.774 134.374 225.166 133.893C225.55 133.407 225.928 132.928 226.299 132.457C227.047 131.518 227.748 130.599 228.414 129.712C229.756 127.942 230.944 126.294 231.986 124.822C233.027 123.349 233.914 122.047 234.64 120.964C235.363 119.879 235.928 119.008 236.313 118.404C236.51 118.092 236.66 117.853 236.762 117.691C236.878 117.5 236.938 117.402 236.938 117.402L237.111 117.12C237.309 116.787 237.491 116.439 237.654 116.077C239.9 111.07 237.664 105.19 232.658 102.942Z" fill="#0088F7"/>
<path d="M215.96 117.304C215.96 117.304 216.324 116.498 216.869 115.289C217.009 114.989 217.16 114.663 217.319 114.318C217.476 113.972 217.681 113.624 217.877 113.258C218.276 112.528 218.702 111.75 219.128 110.971C219.594 110.218 220.06 109.465 220.498 108.759C220.718 108.407 220.924 108.063 221.141 107.751C221.356 107.436 221.559 107.14 221.747 106.866C222.507 105.777 223.014 105.052 223.014 105.052C223.042 105.013 223.096 105.003 223.136 105.03C223.174 105.057 223.184 105.109 223.16 105.148L223.158 105.151C223.158 105.151 222.688 105.899 221.984 107.021C221.806 107.3 221.612 107.602 221.408 107.921C221.2 108.238 221.008 108.59 220.789 108.941C220.361 109.648 219.904 110.403 219.447 111.157C219.017 111.926 218.587 112.694 218.184 113.414C217.989 113.778 217.775 114.115 217.606 114.456C217.436 114.796 217.275 115.117 217.127 115.413C216.521 116.593 216.117 117.38 216.117 117.38C216.095 117.423 216.043 117.44 216 117.418C215.959 117.397 215.941 117.346 215.96 117.304Z" fill="white"/>
<path d="M136.87 162.308C136.87 162.308 137.313 162.363 137.971 162.475C138.136 162.504 138.314 162.535 138.503 162.568C138.691 162.605 138.89 162.618 139.095 162.653C139.504 162.713 139.94 162.777 140.376 162.841C140.816 162.892 141.255 162.944 141.667 162.992C141.873 163.011 142.071 163.051 142.261 163.064C142.45 163.08 142.629 163.096 142.795 163.11C143.456 163.173 143.898 163.233 143.898 163.233L143.904 163.233C143.96 163.241 143.999 163.293 143.992 163.349C143.985 163.399 143.942 163.436 143.893 163.437C143.893 163.437 143.446 163.45 142.775 163.443C142.607 163.439 142.425 163.436 142.232 163.433C142.039 163.432 141.838 163.411 141.629 163.393C141.211 163.354 140.765 163.312 140.319 163.271C139.877 163.195 139.433 163.12 139.018 163.05C138.811 163.013 138.609 162.983 138.425 162.934C138.239 162.887 138.063 162.843 137.902 162.803C137.254 162.637 136.827 162.508 136.827 162.508C136.772 162.491 136.742 162.434 136.758 162.38C136.773 162.331 136.821 162.301 136.87 162.308Z" fill="black"/>
<path d="M135.769 157.489C135.769 157.489 136.235 157.606 136.924 157.809C137.096 157.861 137.283 157.917 137.48 157.976C137.676 158.039 137.888 158.078 138.102 158.141C138.532 158.257 138.99 158.38 139.449 158.504C139.912 158.612 140.375 158.721 140.809 158.822C141.028 158.868 141.234 158.935 141.436 158.971C141.637 159.01 141.827 159.048 142.001 159.082C142.702 159.226 143.168 159.338 143.168 159.338L143.174 159.34C143.229 159.353 143.263 159.408 143.25 159.463C143.237 159.513 143.191 159.546 143.141 159.541C143.141 159.541 142.663 159.5 141.945 159.41C141.766 159.387 141.572 159.361 141.367 159.335C141.16 159.31 140.948 159.262 140.727 159.217C140.285 159.123 139.814 159.024 139.342 158.924C138.879 158.789 138.415 158.653 137.981 158.527C137.764 158.462 137.552 158.405 137.36 158.329C137.167 158.257 136.985 158.189 136.817 158.126C136.145 157.871 135.703 157.683 135.703 157.683C135.651 157.66 135.627 157.6 135.649 157.548C135.67 157.501 135.721 157.476 135.769 157.489Z" fill="black"/>
<path d="M135.028 153.594C135.028 153.594 135.607 153.761 136.465 154.037C136.893 154.18 137.396 154.335 137.928 154.522C138.46 154.706 139.028 154.903 139.596 155.1C140.163 155.297 140.73 155.495 141.262 155.679C141.793 155.864 142.285 156.052 142.708 156.205C143.553 156.52 144.111 156.746 144.111 156.746L144.115 156.748C144.168 156.77 144.193 156.83 144.172 156.881C144.152 156.93 144.099 156.955 144.05 156.942C144.05 156.942 143.469 156.784 142.605 156.521C142.174 156.386 141.669 156.237 141.132 156.061C140.596 155.885 140.024 155.697 139.452 155.509C138.887 155.303 138.322 155.097 137.793 154.903C137.263 154.711 136.775 154.514 136.353 154.354C135.512 154.025 134.959 153.788 134.959 153.788C134.906 153.766 134.882 153.706 134.904 153.654C134.925 153.606 134.978 153.581 135.028 153.594Z" fill="black"/>
<path d="M220.856 77.73C221.822 77.8264 221.629 86.0303 221.629 86.0303H232.439C232.439 86.0303 231.86 82.8452 232.632 77.3439C233.404 71.8425 239.389 73.1937 247.207 65.5685C248.042 64.754 248.733 63.7562 249.284 62.6238C240.473 68.732 230.759 73.5995 220.827 77.73C220.836 77.7304 220.849 77.7292 220.856 77.73Z" fill="#FFAF84"/>
<path d="M234.852 32.4623C219.409 30.5321 213.907 40.9562 213.907 40.9562C213.907 40.9562 210.439 48.0054 210.343 48.5844C210.246 49.1638 210.851 52.7639 211.141 54.0183C211.163 54.1148 211.137 54.2479 211.077 54.4059C211.096 55.8024 208.009 66.1375 208.02 66.1475C208.503 66.6301 208.02 77.2471 209.081 78.9845C210.135 80.7077 219.733 77.6837 220.827 77.7297C230.759 73.5992 240.473 68.7313 249.284 62.6235C253.891 53.1563 248.646 34.1863 234.852 32.4623Z" fill="#FFCBAB"/>
<path d="M209.918 62.8661C209.344 62.0679 210.163 61.5601 210.689 59.9633C211.085 58.763 211.096 55.8024 211.076 54.4059C210.365 56.302 204.265 63.8594 204.354 64.3939C204.448 64.961 207.402 65.5641 207.978 66.1105C209.402 66.7926 209.794 66.5266 210.289 66.3412C210.783 66.1557 210.926 64.2681 209.918 62.8661Z" fill="#FFAF84"/>
<path d="M212.26 55.1863C212.26 55.1863 214.169 54.9582 214.169 55.1863C214.169 55.414 213.532 59.3401 214.786 59.3401C216.041 59.3401 216.449 55.8699 216.449 55.8699C216.449 55.8699 218.485 56.4967 219.897 57.2378C219.897 57.2378 215.834 53.7494 213.194 53.627C212.483 53.594 212.26 55.1863 212.26 55.1863Z" fill="#9B3D27"/>
<path d="M209.42 69.6549C209.42 69.6549 209.566 69.686 209.819 69.7402C209.946 69.7665 210.1 69.804 210.277 69.8288C210.455 69.8541 210.651 69.8963 210.87 69.9227C211.089 69.946 211.324 69.9876 211.576 69.9965C211.701 70.0043 211.83 70.0124 211.962 70.0206C212.093 70.0217 212.228 70.0228 212.365 70.0243C212.638 70.0273 212.92 70.008 213.205 69.9791C213.347 69.9605 213.491 69.942 213.634 69.9234L214.061 69.8377C214.343 69.7706 214.627 69.7038 214.896 69.6048C215.17 69.5199 215.427 69.4019 215.68 69.2973C215.924 69.1734 216.168 69.0688 216.386 68.9412C216.609 68.824 216.812 68.7002 216.999 68.5826C217.188 68.4694 217.354 68.353 217.505 68.2554C217.656 68.1582 217.784 68.0674 217.888 67.991C218.098 67.84 218.218 67.7539 218.218 67.7539L218.22 67.7525C218.252 67.7291 218.297 67.7369 218.321 67.7688C218.343 67.7996 218.337 67.8426 218.308 67.8663C218.308 67.8663 218.193 67.9609 217.991 68.1267C217.891 68.2105 217.768 68.3107 217.622 68.419C217.476 68.528 217.317 68.6579 217.127 68.7784C216.941 68.9049 216.738 69.0395 216.514 69.1679C216.296 69.3058 216.051 69.4264 215.799 69.5544C215.54 69.666 215.275 69.791 214.992 69.8826C214.713 69.9887 214.419 70.0621 214.126 70.1356L213.681 70.2205C213.531 70.238 213.382 70.2558 213.235 70.2732C212.939 70.2995 212.646 70.3155 212.363 70.3092C212.222 70.3055 212.083 70.3018 211.948 70.298C211.813 70.2847 211.68 70.2713 211.552 70.2587C211.294 70.2394 211.055 70.1879 210.833 70.156C210.61 70.123 210.41 70.0666 210.232 70.0276C210.053 69.9891 209.903 69.9423 209.778 69.9075C209.528 69.8363 209.385 69.7958 209.385 69.7958C209.347 69.7851 209.324 69.745 209.335 69.7068C209.346 69.6693 209.383 69.6475 209.42 69.6549Z" fill="black"/>
<path d="M230.655 62.7692C230.655 65.7996 228.198 68.2565 225.168 68.2565C222.137 68.2565 219.681 65.7996 219.681 62.7692C219.681 59.7389 222.137 57.2823 225.168 57.2823C228.198 57.2823 230.655 59.7389 230.655 62.7692Z" fill="#FFAF84"/>
<path d="M212.02 51.5116C212.02 51.5116 214.528 51.0531 216.653 51.7861C218.778 52.519 221.603 54.7037 221.603 54.7037C221.603 54.7037 219.634 50.841 217.093 49.7427C214.553 48.6444 211.703 48.8922 211.703 48.8922L212.02 51.5116Z" fill="#9B3D27"/>
<path d="M204.5 48.8926C204.564 48.4424 205.375 39.3576 209.404 39.026C211.901 38.8205 216.738 45.7176 221.307 44.8816C225.876 44.0452 233.405 41.3427 233.405 41.3427C233.405 41.3427 250.198 36.0398 249.362 34.1551C248.526 32.2698 240.948 21.1161 229.416 24.1197C216.546 27.472 214.101 34.522 212.363 34.7794C210.625 35.0368 207.734 34.3506 205.671 36.2593C201.36 40.2481 204.5 48.8926 204.5 48.8926Z" fill="#E85F3A"/>
<path d="M230.655 41.728C230.655 41.728 226.194 47.0874 226.322 50.9482C226.451 54.809 230.187 59.359 229.801 63.606C229.414 67.8526 226.905 75.7675 225.168 79.4996C223.431 83.2318 208.309 100.283 212.105 104.08C215.902 107.876 226.669 101.905 227.248 102.162C227.827 102.419 243.932 99.5378 235.348 127.171C233.979 131.577 233.334 135.13 239.095 134.007C248.308 132.211 250.891 130.861 262.774 117.688C269.657 110.058 265.759 99.7048 263.093 96.3161C259.501 91.7516 253.383 83.8107 253.287 81.6873C253.19 79.5638 262.597 59.8397 261.394 52.3454C258.885 36.7092 249.361 34.1544 249.361 34.1544L230.655 41.728Z" fill="#E85F3A"/>
<path d="M229.661 59.1273C229.661 59.1273 230.696 53.7527 232.001 53.1337C233.305 52.5146 237.609 52.7016 237.366 57.9956C237.122 63.2896 230.901 68.6152 229.486 66.2736C229.256 65.8923 229.661 59.1273 229.661 59.1273Z" fill="#FFAF84"/>
<path d="M231.088 62.7822L231.338 62.586C231.426 62.5233 231.496 62.4521 231.575 62.3857C231.729 62.2526 231.877 62.1042 232.006 61.9492C232.071 61.8709 232.142 61.7974 232.196 61.7133C232.253 61.6309 232.316 61.5519 232.359 61.4636C232.407 61.3779 232.456 61.2923 232.484 61.201C232.525 61.1127 232.546 61.0219 232.562 60.931C232.591 60.8405 232.573 60.7507 232.582 60.6617C232.565 60.576 232.563 60.4866 232.529 60.4054C232.495 60.3246 232.469 60.2407 232.41 60.1703C232.384 60.1335 232.361 60.095 232.334 60.0594L232.234 59.9611C232.174 59.891 232.094 59.8364 232.015 59.7808C231.941 59.7207 231.855 59.6725 231.766 59.628C231.598 59.5263 231.402 59.4637 231.217 59.3858L231.196 59.3769C231.105 59.3383 231.057 59.2419 231.076 59.1484L231.34 57.8435C231.463 57.4173 231.574 56.9878 231.708 56.5657L232.182 55.3254C232.377 54.9274 232.563 54.5272 232.763 54.1344C232.789 54.0843 232.851 54.0643 232.901 54.0899C232.948 54.1136 232.969 54.1681 232.951 54.2164L232.948 54.2234C232.797 54.634 232.633 55.0372 232.477 55.4426L232.071 56.6803L231.742 57.9381L231.504 59.214L231.362 58.977C231.566 59.066 231.776 59.1376 231.971 59.2578C232.071 59.3101 232.168 59.3676 232.259 59.4418C232.352 59.51 232.446 59.5775 232.525 59.6688L232.649 59.7975C232.686 59.845 232.718 59.898 232.752 59.9484C232.826 60.0453 232.868 60.1639 232.911 60.2804C232.953 60.3961 232.964 60.5245 232.976 60.6458C232.964 60.767 232.973 60.8939 232.934 61.007C232.908 61.1246 232.872 61.2374 232.82 61.3409C232.778 61.4503 232.717 61.5471 232.657 61.6431C232.601 61.7433 232.528 61.8275 232.46 61.9161C232.393 62.007 232.314 62.0842 232.238 62.1635C232.082 62.3208 231.917 62.4621 231.74 62.5923C231.651 62.655 231.565 62.7281 231.474 62.7811L231.204 62.9495C231.156 62.9795 231.093 62.9651 231.063 62.9169C231.036 62.8727 231.047 62.8141 231.088 62.7822Z" fill="black"/>
<path d="M231.58 41.3946C231.58 41.3946 231.837 41.2874 232.286 41.0997C232.737 40.9146 233.376 40.6387 234.15 40.3279C234.925 40.0174 235.825 39.6439 236.798 39.2656C237.769 38.8854 238.805 38.4796 239.842 38.0738C240.874 37.6625 241.907 37.2511 242.876 36.8654C243.357 36.6662 243.834 36.5004 244.272 36.3086C244.711 36.1221 245.127 35.9459 245.51 35.7831C246.281 35.4641 246.923 35.1978 247.372 35.0116C247.822 34.8265 248.08 34.7208 248.08 34.7208L248.084 34.7189C248.136 34.6974 248.196 34.7226 248.217 34.7745C248.238 34.8254 248.215 34.8832 248.166 34.9058C248.166 34.9058 247.914 35.0245 247.473 35.2319C247.031 35.4385 246.4 35.7337 245.643 36.0876C245.263 36.2615 244.851 36.45 244.415 36.6491C243.981 36.8528 243.511 37.0375 243.029 37.2374C242.062 37.6328 241.031 38.0549 240 38.4766C238.959 38.8731 237.92 39.2696 236.944 39.6417C235.967 40.0066 235.054 40.3471 234.272 40.639C233.491 40.9321 232.833 41.1591 232.375 41.3263C231.917 41.491 231.655 41.5849 231.655 41.5849C231.601 41.6042 231.543 41.5767 231.524 41.5237C231.505 41.4725 231.53 41.4157 231.58 41.3946Z" fill="black"/>
<path d="M229.086 92.1177C229.086 92.1177 229.466 92.0391 230.129 91.9015C230.294 91.867 230.478 91.8288 230.678 91.7873C230.879 91.7494 231.101 91.7246 231.335 91.689C231.806 91.6278 232.337 91.5273 232.921 91.5072C233.213 91.4883 233.517 91.469 233.832 91.4483C234.146 91.4297 234.473 91.4468 234.809 91.4445C235.48 91.426 236.186 91.5043 236.916 91.5692C237.28 91.6081 237.646 91.686 238.019 91.7446C238.204 91.7776 238.393 91.804 238.58 91.8433C238.765 91.89 238.951 91.9371 239.137 91.9846C239.892 92.1489 240.628 92.4204 241.368 92.6767C242.084 92.9961 242.807 93.2987 243.471 93.6938C243.64 93.7865 243.808 93.8788 243.975 93.9708C244.138 94.0706 244.294 94.1793 244.452 94.2817C244.764 94.4938 245.085 94.6863 245.377 94.9066C245.956 95.3577 246.522 95.7839 247.001 96.2557C247.245 96.4864 247.495 96.6967 247.712 96.9259C247.927 97.1559 248.136 97.378 248.336 97.5913C248.75 98.0053 249.066 98.4411 249.367 98.8064C249.515 98.9926 249.658 99.1614 249.78 99.3264C249.897 99.4945 250.006 99.6484 250.104 99.7875C250.495 100.344 250.718 100.661 250.718 100.661C250.751 100.708 250.74 100.772 250.694 100.804C250.648 100.836 250.586 100.826 250.553 100.782L250.549 100.777C250.549 100.777 250.316 100.47 249.909 99.9322C249.807 99.7983 249.694 99.6491 249.572 99.4874C249.446 99.3283 249.297 99.1662 249.145 98.9874C248.834 98.6373 248.507 98.2204 248.093 97.8183C247.892 97.6121 247.682 97.3977 247.466 97.1755C247.248 96.9545 246.997 96.7531 246.753 96.5312C246.275 96.0761 245.707 95.6744 245.14 95.2331C244.853 95.019 244.537 94.8336 244.231 94.6277C244.075 94.5283 243.922 94.423 243.762 94.3269C243.598 94.2383 243.433 94.1492 243.268 94.0595C242.617 93.6774 241.909 93.3878 241.209 93.0795C240.487 92.8292 239.772 92.5558 239.035 92.3915C238.853 92.344 238.672 92.2965 238.491 92.2494C238.309 92.2105 238.125 92.183 237.943 92.1496C237.579 92.0907 237.222 92.0117 236.866 91.9709C236.151 91.9067 235.461 91.8136 234.801 91.8177C234.471 91.8132 234.151 91.7899 233.841 91.8017C233.53 91.8155 233.231 91.8288 232.943 91.8414C232.365 91.8518 231.845 91.9327 231.378 91.9746C231.146 92.0005 230.928 92.0169 230.726 92.0469C230.525 92.081 230.34 92.1126 230.173 92.1408C229.506 92.2542 229.124 92.3188 229.124 92.3188C229.068 92.3281 229.015 92.2906 229.006 92.2346C228.997 92.1808 229.033 92.1292 229.086 92.1177Z" fill="black"/>
<path d="M214.388 34.1567C214.388 34.1567 214.667 34.173 215.081 34.2208C215.185 34.2342 215.297 34.2486 215.415 34.2639C215.533 34.2772 215.658 34.3147 215.787 34.3443C216.045 34.4059 216.32 34.4805 216.594 34.5554C216.858 34.6552 217.121 34.7553 217.365 34.8558C217.487 34.907 217.607 34.9489 217.713 35.0086C217.82 35.0661 217.921 35.1207 218.014 35.1707C218.383 35.3766 218.619 35.5257 218.619 35.5257C218.667 35.5561 218.682 35.6192 218.651 35.667C218.626 35.7074 218.577 35.7241 218.534 35.71L218.526 35.7074C218.526 35.7074 218.26 35.6221 217.875 35.4753C217.78 35.4374 217.676 35.3966 217.567 35.3529C217.46 35.3043 217.337 35.2776 217.217 35.2327C216.974 35.1526 216.717 35.0602 216.461 34.9675C216.201 34.8926 215.941 34.8191 215.698 34.7412C215.575 34.7071 215.463 34.6585 215.345 34.6337C215.229 34.6044 215.12 34.5769 215.019 34.5513C214.616 34.4437 214.35 34.357 214.35 34.357C214.296 34.3391 214.266 34.2809 214.284 34.2268C214.299 34.1823 214.342 34.1541 214.388 34.1567Z" fill="black"/>
<path d="M229.902 37.4054C229.902 37.4054 230.071 37.5471 230.305 37.7752C230.422 37.8895 230.557 38.0226 230.685 38.1892C230.817 38.3502 230.951 38.5275 231.085 38.7048C231.204 38.891 231.322 39.0775 231.426 39.2559C231.536 39.4314 231.617 39.6072 231.684 39.7585C231.818 40.0616 231.893 40.2685 231.893 40.2685C231.913 40.3223 231.885 40.3813 231.832 40.4006C231.789 40.4161 231.743 40.4013 231.715 40.3679L231.711 40.3624C231.711 40.3624 231.574 40.1903 231.392 39.9243C231.301 39.7912 231.202 39.632 231.082 39.4711C230.965 39.3082 230.847 39.1302 230.729 38.9522C230.604 38.7815 230.478 38.6109 230.367 38.4451C230.308 38.3643 230.262 38.2808 230.204 38.2066C230.149 38.131 230.096 38.0597 230.048 37.9937C229.86 37.7263 229.746 37.5379 229.746 37.5379C229.717 37.4889 229.733 37.4251 229.782 37.3954C229.821 37.3724 229.87 37.3776 229.902 37.4054Z" fill="black"/>
<path d="M232.499 36.911C232.499 36.911 232.595 36.9681 232.72 37.0686C232.845 37.1699 232.996 37.3182 233.133 37.4785C233.251 37.6676 233.353 37.8702 233.415 38.0259C233.476 38.1828 233.501 38.2908 233.501 38.2908C233.514 38.3472 233.479 38.4035 233.422 38.4165C233.389 38.4243 233.356 38.4154 233.332 38.395L233.319 38.3839C233.319 38.3839 233.234 38.3123 233.128 38.1995C233.025 38.086 232.906 37.9288 232.803 37.7593C232.666 37.5987 232.544 37.4262 232.463 37.2867C232.384 37.1469 232.343 37.0434 232.343 37.0434C232.321 36.9878 232.348 36.9251 232.404 36.9028C232.436 36.8906 232.471 36.8947 232.499 36.911Z" fill="black"/>
<path d="M245.007 31.5124C245.007 31.5124 245.073 31.6274 245.148 31.8054C245.223 31.9838 245.303 32.2264 245.365 32.4738C245.427 32.7212 245.469 32.9734 245.487 33.1659C245.505 33.3588 245.502 33.4908 245.502 33.4908C245.5 33.5495 245.451 33.5958 245.393 33.5943C245.354 33.5936 245.321 33.5717 245.303 33.5402C245.303 33.5402 245.238 33.4252 245.163 33.2468C245.088 33.0684 245.007 32.8258 244.944 32.5788C244.883 32.3314 244.839 32.0795 244.821 31.887C244.804 31.6941 244.808 31.5617 244.808 31.5617C244.81 31.5031 244.859 31.4568 244.918 31.4586C244.956 31.4601 244.989 31.4816 245.007 31.5124Z" fill="black"/>
<path d="M252.461 83.5415C252.461 83.5415 252.765 83.9562 253.199 84.5908C253.307 84.7499 253.424 84.9224 253.548 85.1049C253.667 85.2911 253.824 85.4602 253.964 85.6531C254.253 86.0307 254.562 86.4335 254.871 86.8359C255.206 87.2191 255.541 87.6019 255.855 87.9613C256.017 88.136 256.151 88.3266 256.311 88.4765C256.466 88.6308 256.612 88.7769 256.748 88.9116C257.286 89.4538 257.637 89.8285 257.637 89.8285L257.643 89.8344C257.676 89.8696 257.674 89.9249 257.639 89.9579C257.606 89.9883 257.556 89.9891 257.523 89.9613C257.523 89.9613 257.128 89.6311 256.55 89.1167C256.406 88.9869 256.25 88.8467 256.085 88.6987C255.915 88.554 255.767 88.3726 255.602 88.1961C255.277 87.837 254.93 87.4543 254.584 87.0711C254.276 86.6549 253.967 86.2391 253.678 85.8489C253.537 85.6524 253.387 85.4695 253.279 85.2777C253.165 85.0893 253.057 84.9109 252.958 84.7462C252.563 84.086 252.313 83.6372 252.313 83.6372C252.29 83.5949 252.305 83.5415 252.347 83.5177C252.387 83.4948 252.435 83.5062 252.461 83.5415Z" fill="white"/>
<path d="M250.587 35.6718C250.587 35.6718 250.703 35.7527 250.905 35.8943C251.101 36.0449 251.4 36.2282 251.725 36.5045C251.891 36.6391 252.07 36.7849 252.259 36.9392C252.451 37.0913 252.635 37.2701 252.831 37.4496C253.025 37.6313 253.231 37.8138 253.421 38.0186C253.616 38.2192 253.813 38.4229 254.011 38.6269C254.194 38.8438 254.377 39.0612 254.557 39.2748C254.743 39.484 254.902 39.7092 255.062 39.9221C255.219 40.1368 255.38 40.3386 255.507 40.5474C255.637 40.7537 255.76 40.9488 255.874 41.129C255.992 41.306 256.085 41.4777 256.162 41.6327C256.242 41.7859 256.312 41.9195 256.37 42.0296C256.482 42.2507 256.546 42.3768 256.546 42.3768C256.568 42.4198 256.551 42.4725 256.508 42.4944C256.468 42.5148 256.419 42.501 256.395 42.4636L256.391 42.458C256.391 42.458 256.316 42.3397 256.183 42.1331C256.048 41.9291 255.882 41.6209 255.635 41.2822C255.514 41.1109 255.385 40.925 255.247 40.7285C255.114 40.5289 254.943 40.3408 254.788 40.1305C254.627 39.9243 254.468 39.7058 254.283 39.5033C254.103 39.296 253.919 39.086 253.737 38.8754C253.545 38.6725 253.354 38.4692 253.165 38.2697C252.981 38.0653 252.781 37.8828 252.593 37.7007C252.401 37.5234 252.228 37.3361 252.048 37.1784C251.87 37.0182 251.701 36.8665 251.546 36.7267C251.239 36.4433 250.958 36.2241 250.774 36.0624C250.587 35.9014 250.48 35.8094 250.48 35.8094C250.443 35.7779 250.44 35.7226 250.471 35.6859C250.5 35.6521 250.551 35.6466 250.587 35.6718Z" fill="white"/>
<path d="M237.632 42.3827C237.632 42.3827 237.747 42.5656 237.895 42.8497C237.964 42.9962 238.061 43.1542 238.159 43.323C238.26 43.4921 238.352 43.6783 238.457 43.8597C238.564 44.0411 238.671 44.2228 238.766 44.3964C238.858 44.5722 238.953 44.7299 239.036 44.8652C239.196 45.139 239.291 45.3319 239.291 45.3319L239.294 45.3378C239.316 45.3812 239.298 45.4339 239.254 45.4554C239.218 45.4728 239.177 45.4639 239.151 45.4365C239.151 45.4365 239.004 45.2784 238.801 45.0251C238.702 44.8964 238.577 44.7521 238.472 44.5796C238.361 44.4105 238.248 44.2265 238.135 44.0422C238.03 43.8534 237.934 43.6557 237.846 43.4721C237.753 43.2892 237.685 43.113 237.633 42.9621C237.528 42.6594 237.472 42.451 237.472 42.451C237.459 42.4039 237.487 42.3556 237.534 42.343C237.572 42.3334 237.612 42.3508 237.632 42.3827Z" fill="white"/>
<path d="M240.223 40.888C240.223 40.888 240.294 40.9425 240.379 41.0374C240.465 41.132 240.57 41.2641 240.655 41.4076C240.752 41.5382 240.829 41.6806 240.882 41.7934C240.935 41.9065 240.959 41.9925 240.959 41.9925L240.961 41.9992C240.974 42.0482 240.946 42.099 240.897 42.1127C240.87 42.1201 240.842 42.1146 240.821 42.1005C240.821 42.1005 240.747 42.0511 240.652 41.961C240.558 41.8701 240.439 41.7425 240.339 41.6016C240.251 41.4595 240.181 41.3064 240.135 41.1869C240.09 41.0675 240.073 40.9796 240.073 40.9796C240.064 40.9288 240.097 40.8798 240.148 40.8705C240.175 40.865 240.202 40.8724 240.223 40.888Z" fill="white"/>
<path d="M230.493 24.712C230.493 24.712 230.883 24.6312 231.47 24.534C231.618 24.5106 231.777 24.485 231.945 24.458C232.112 24.4242 232.298 24.4305 232.486 24.4201C232.864 24.4079 233.268 24.3949 233.671 24.3819C234.071 24.4183 234.471 24.4543 234.846 24.4884C235.033 24.5084 235.215 24.5162 235.383 24.5566C235.552 24.5941 235.711 24.629 235.858 24.6616C236.445 24.7955 236.829 24.899 236.829 24.899C236.876 24.9116 236.904 24.9594 236.891 25.0058C236.88 25.0477 236.839 25.0744 236.798 25.07L236.788 25.0689C236.788 25.0689 236.393 25.0266 235.809 24.9416C235.663 24.9194 235.506 24.8956 235.339 24.87C235.173 24.8404 234.992 24.85 234.81 24.8307C234.443 24.8055 234.051 24.7788 233.66 24.7521C233.27 24.7562 232.88 24.7603 232.514 24.7643C232.331 24.7732 232.154 24.7521 231.984 24.774C231.814 24.7892 231.653 24.8037 231.505 24.8174C230.911 24.8678 230.513 24.8853 230.513 24.8853C230.465 24.8875 230.424 24.85 230.422 24.8014C230.421 24.7584 230.452 24.7206 230.493 24.712Z" fill="white"/>
<path d="M208.225 35.8425C208.225 35.8425 208.349 35.7994 208.567 35.7249C208.675 35.6885 208.807 35.6444 208.959 35.5939C209.035 35.5687 209.116 35.5416 209.201 35.5135C209.287 35.4879 209.385 35.479 209.484 35.4593C209.683 35.4255 209.899 35.3888 210.128 35.3502C210.357 35.2998 210.6 35.3209 210.851 35.3091C211.102 35.3054 211.362 35.2905 211.623 35.3328C211.885 35.364 212.153 35.3855 212.417 35.4267C212.676 35.4916 212.936 35.5568 213.191 35.6206C213.45 35.6718 213.685 35.7872 213.921 35.8669C214.155 35.9567 214.385 36.0312 214.585 36.1451C214.788 36.2497 214.98 36.348 215.157 36.4393C215.338 36.5231 215.489 36.6277 215.623 36.7174C215.758 36.8065 215.875 36.884 215.972 36.9481C216.163 37.078 216.273 37.1518 216.273 37.1518C216.312 37.1789 216.323 37.233 216.296 37.2731C216.271 37.3102 216.222 37.3217 216.183 37.3013L216.175 37.2975C216.175 37.2975 216.061 37.236 215.859 37.1284C215.656 37.026 215.383 36.8476 215.027 36.6918C214.85 36.6121 214.659 36.5257 214.456 36.4344C214.259 36.3324 214.029 36.2768 213.804 36.1907C213.574 36.1177 213.346 36.009 213.096 35.9649C212.85 35.9074 212.6 35.8491 212.349 35.7909C212.097 35.7508 211.842 35.7241 211.591 35.69C211.341 35.6444 211.093 35.6551 210.852 35.6548C210.732 35.6544 210.614 35.654 210.498 35.6537C210.382 35.6481 210.269 35.6496 210.162 35.6678C209.944 35.6926 209.739 35.7163 209.549 35.7382C209.359 35.7512 209.184 35.7924 209.028 35.8332C208.873 35.8706 208.738 35.9033 208.626 35.9304C208.402 35.9819 208.274 36.0112 208.274 36.0112C208.227 36.022 208.18 35.9927 208.169 35.9456C208.158 35.9007 208.184 35.8569 208.225 35.8425Z" fill="white"/>
<path d="M251.548 106.391C251.548 106.391 251.642 107.207 251.852 108.41C251.949 109.014 252.093 109.715 252.228 110.47C252.365 111.225 252.511 112.033 252.636 112.845C252.75 113.66 252.837 114.48 252.879 115.254C252.889 115.641 252.907 116.015 252.889 116.371C252.882 116.726 252.866 117.061 252.832 117.37C252.813 117.68 252.767 117.961 252.724 118.209C252.687 118.459 252.647 118.674 252.602 118.849C252.52 119.201 252.474 119.402 252.474 119.402C252.463 119.449 252.416 119.478 252.369 119.467C252.324 119.457 252.295 119.413 252.302 119.368L252.303 119.361C252.303 119.361 252.338 119.161 252.398 118.811C252.433 118.636 252.46 118.423 252.482 118.176C252.51 117.93 252.537 117.653 252.549 117.349C252.573 117.046 252.577 116.717 252.573 116.368C252.581 116.02 252.546 115.652 252.535 115.273C252.486 114.513 252.391 113.705 252.27 112.9C252.152 112.093 252.017 111.287 251.888 110.53C251.758 109.773 251.652 109.063 251.57 108.452C251.485 107.843 251.442 107.326 251.415 106.97C251.389 106.613 251.375 106.408 251.375 106.408C251.37 106.36 251.406 106.318 251.454 106.314C251.5 106.31 251.542 106.345 251.548 106.391Z" fill="white"/>
<path d="M221.148 91.7263C221.148 91.7263 221.203 91.4945 221.3 91.0891C221.349 90.8862 221.408 90.6399 221.476 90.3573C221.51 90.216 221.546 90.0658 221.584 89.9074C221.629 89.7505 221.689 89.588 221.745 89.417C221.86 89.0754 221.985 88.7053 222.116 88.3132C222.241 87.9182 222.427 87.5269 222.596 87.1103C222.772 86.6971 222.943 86.265 223.157 85.8455C223.363 85.4216 223.572 84.9909 223.78 84.5603C224.009 84.1404 224.237 83.7202 224.461 83.307C224.682 82.8908 224.918 82.4936 225.141 82.1056C225.585 81.3278 226.024 80.619 226.394 80.0066C227.146 78.7911 227.648 77.9807 227.648 77.9807C227.673 77.9395 227.727 77.9262 227.768 77.9514C227.808 77.9755 227.821 78.0282 227.799 78.0686C227.799 78.0686 227.335 78.9013 226.639 80.1505C226.284 80.7703 225.874 81.4966 225.44 82.2755C225.222 82.6642 224.99 83.0629 224.775 83.478C224.555 83.8908 224.332 84.3103 224.109 84.7298C223.899 85.1549 223.688 85.5803 223.481 85.9987C223.265 86.4134 223.092 86.8388 222.914 87.2461C222.747 87.6567 222.548 88.0417 222.415 88.4245C222.275 88.8054 222.142 89.1656 222.02 89.4975C221.959 89.6644 221.901 89.8243 221.845 89.976C221.799 90.1325 221.756 90.2805 221.714 90.42C221.632 90.6985 221.561 90.9415 221.502 91.1414C221.385 91.5416 221.317 91.7701 221.317 91.7701C221.304 91.8165 221.255 91.8432 221.209 91.8295C221.163 91.8176 221.137 91.7712 221.148 91.7263Z" fill="white"/>
<path d="M204.903 63.879C204.903 63.879 205.128 63.5125 205.485 62.9773C205.667 62.7117 205.871 62.3961 206.105 62.0685C206.337 61.7403 206.585 61.3901 206.832 61.04C207.087 60.6947 207.342 60.3497 207.581 60.0263C207.82 59.7029 208.054 59.4091 208.249 59.1528C208.644 58.645 208.921 58.3156 208.921 58.3156C208.952 58.2786 209.007 58.2737 209.045 58.3049C209.078 58.3335 209.085 58.382 209.062 58.4188C209.062 58.4188 208.837 58.7845 208.479 59.3201C208.298 59.5857 208.092 59.9002 207.86 60.2288C207.628 60.5574 207.38 60.9076 207.133 61.2577C206.878 61.6031 206.624 61.9484 206.385 62.2718C206.147 62.5964 205.912 62.8894 205.717 63.1453C205.321 63.6531 205.044 63.9821 205.044 63.9821C205.013 64.0192 204.958 64.0236 204.921 63.9925C204.887 63.9639 204.88 63.9153 204.903 63.879Z" fill="white"/>
<path d="M212.604 52.4593C212.604 52.4593 212.656 52.4319 212.747 52.384C212.793 52.3614 212.849 52.334 212.913 52.3024C212.976 52.2698 213.046 52.2327 213.143 52.2149C213.235 52.1912 213.336 52.1659 213.445 52.1433C213.555 52.1114 213.664 52.1229 213.782 52.1144C213.898 52.1122 214.02 52.0995 214.14 52.124C214.26 52.1411 214.383 52.1548 214.505 52.1763C214.622 52.2101 214.74 52.2438 214.855 52.2768C214.973 52.305 215.077 52.361 215.182 52.4026C215.285 52.4482 215.388 52.4875 215.477 52.5406C215.566 52.5914 215.651 52.6396 215.729 52.6837C215.885 52.7709 215.999 52.8696 216.085 52.9259C216.17 52.9871 216.216 53.0246 216.216 53.0246C216.26 53.0606 216.267 53.1255 216.231 53.17C216.202 53.206 216.154 53.2171 216.113 53.2011L216.111 53.2C216.111 53.2 216.056 53.1789 215.962 53.1418C215.869 53.104 215.738 53.0424 215.578 52.9831C215.499 52.9515 215.414 52.9178 215.323 52.8818C215.235 52.8406 215.134 52.8187 215.037 52.7813C214.937 52.749 214.837 52.7064 214.731 52.6841C214.626 52.6563 214.519 52.6285 214.413 52.6003C214.306 52.5828 214.198 52.5654 214.092 52.548C213.986 52.525 213.883 52.5257 213.781 52.5216C213.682 52.5242 213.577 52.4998 213.492 52.5172C213.404 52.5272 213.319 52.5335 213.239 52.5387C213.08 52.5439 212.929 52.6036 212.832 52.6192C212.732 52.6403 212.674 52.6522 212.674 52.6522C212.618 52.6641 212.564 52.6281 212.552 52.5721C212.542 52.5257 212.565 52.4805 212.604 52.4593Z" fill="black"/>
</svg>
